<svg xmlns="http://www.w3.org/2000/svg" width="7.354" height="12.314" viewBox="0 0 7.354 12.314">
  <g id="Group_46816" data-name="Group 46816" transform="translate(-243.325 -28.468)">
    <path id="Path_19444" data-name="Path 19444" d="M259.921,587.4h-6.2a.415.415,0,0,0-.37.649l3.1,4.239a.469.469,0,0,0,.742,0l3.1-4.239A.416.416,0,0,0,259.921,587.4Z" transform="translate(-9.818 -551.815)" fill="#646464"/>
    <path id="Path_19445" data-name="Path 19445" d="M250.1,45.238H243.92a.6.6,0,0,0-.521.278.515.515,0,0,0,.029.573l.1.135.482.661q.359.491.717.983l.769,1.054c.216.3.431.592.647.887l.35.481a.608.608,0,0,0,1,.022c.1-.13.192-.262.287-.393l.612-.839q.382-.525.765-1.049.367-.5.734-1.006l.53-.727a.9.9,0,0,0,.256-.522.566.566,0,0,0-.58-.537.127.127,0,1,0,0,.255.29.29,0,0,1,.271.43c-.022.036-.049.07-.074.1-.135.185-.27.371-.405.555q-.71.974-1.422,1.948l-1.125,1.542c-.027.038-.055.076-.083.113a.327.327,0,0,1-.458.052.624.624,0,0,1-.1-.116l-.156-.214q-.636-.871-1.271-1.743l-1.336-1.831c-.092-.126-.185-.251-.275-.377a.279.279,0,0,1,.053-.4.374.374,0,0,1,.24-.062H250.1a.127.127,0,1,0,0-.255Zm0-1.793h-6.186a.415.415,0,0,1-.37-.649l3.093-4.239a.467.467,0,0,1,.74,0l3.093,4.239A.416.416,0,0,1,250.1,43.445Z" transform="translate(0 -9.78)" fill="#646464"/>
    <path id="Path_19446" data-name="Path 19446" d="M250.152,33.538h-6.145a.362.362,0,0,1-.244-.07.276.276,0,0,1-.042-.4l.094-.129q.575-.787,1.148-1.575l1.412-1.935.387-.531a.507.507,0,0,1,.1-.12.326.326,0,0,1,.448.064c.1.124.185.252.276.378l.588.807,1.466,2.008c.185.253.37.505.553.759.052.07.1.141.155.211a1,1,0,0,1,.086.126.294.294,0,0,1-.287.4.127.127,0,1,0,0,.255.538.538,0,0,0,.461-.879l-.37-.507q-.328-.451-.658-.9-.386-.527-.77-1.056-.353-.485-.708-.969l-.469-.643c-.029-.039-.057-.08-.088-.12a.616.616,0,0,0-.664-.225c-.231.067-.341.256-.468.429-.175.239-.349.479-.524.719q-.367.5-.736,1.008-.382.523-.762,1.045l-.617.845c-.1.135-.2.269-.3.4a.517.517,0,0,0-.015.59.607.607,0,0,0,.512.26c.167,0,.335,0,.5,0h5.67A.129.129,0,1,0,250.152,33.538Z" transform="translate(-0.057)" fill="#646464"/>
  </g>
</svg>
