<svg xmlns="http://www.w3.org/2000/svg" width="7.35" height="12.188" viewBox="0 0 7.35 12.188">
  <path id="Path_19445" data-name="Path 19445" d="M250.1,45.238H243.92a.6.6,0,0,0-.521.278.515.515,0,0,0,.029.573l.1.135.482.661q.359.491.717.983l.769,1.054c.216.3.431.592.647.887l.35.481a.608.608,0,0,0,1,.022c.1-.13.192-.262.287-.393l.612-.839q.382-.525.765-1.049.367-.5.734-1.006l.53-.727a.9.9,0,0,0,.256-.522.566.566,0,0,0-.58-.537.127.127,0,1,0,0,.255.29.29,0,0,1,.271.43c-.022.036-.049.07-.074.1-.135.185-.27.371-.405.555q-.71.974-1.422,1.948l-1.125,1.542c-.027.038-.055.076-.083.113a.327.327,0,0,1-.458.052.624.624,0,0,1-.1-.116l-.156-.214q-.636-.871-1.271-1.743l-1.336-1.831c-.092-.126-.185-.251-.275-.377a.279.279,0,0,1,.053-.4.374.374,0,0,1,.24-.062H250.1a.127.127,0,1,0,0-.255Zm0-1.793h-6.186a.415.415,0,0,1-.37-.649l3.093-4.239a.467.467,0,0,1,.74,0l3.093,4.239A.416.416,0,0,1,250.1,43.445Z" transform="translate(-243.325 -38.375)" fill="#646464"/>
</svg>
