<svg width="32" height="32" viewBox="0 0 32 32" fill="none" xmlns="http://www.w3.org/2000/svg">
<path d="M21.9832 21.71L16.3177 16.0327L21.9525 10.3864C22.412 9.92566 22.412 9.17884 21.9525 8.71839C21.4928 8.25793 20.7477 8.25793 20.2879 8.71839L14.6531 14.3647L9.01844 8.71839C8.55867 8.25793 7.81362 8.25793 7.35384 8.71839C6.89407 9.1791 6.89407 9.92592 7.35384 10.3864L12.9885 16.0327L7.32237 21.71C6.8626 22.1707 6.8626 22.9173 7.32237 23.378C7.55226 23.6084 7.8534 23.7234 8.1548 23.7234C8.45619 23.7234 8.75733 23.6084 8.98722 23.378L14.6531 17.7007L20.3186 23.378C20.5485 23.6084 20.8497 23.7234 21.1511 23.7234C21.4525 23.7234 21.7536 23.6084 21.9835 23.378C22.4428 22.9176 22.4428 22.1707 21.9832 21.71Z" fill="#333333"/>
</svg>
