<svg xmlns="http://www.w3.org/2000/svg" width="6.445" height="7.631" viewBox="0 0 6.445 7.631">
  <path id="Path_19424" data-name="Path 19424" d="M126.4,88.339v2.721a.673.673,0,0,0,.671.671h5.1a.673.673,0,0,0,.671-.671V88.339a.673.673,0,0,0-.671-.671h-5.1A.673.673,0,0,0,126.4,88.339Zm5.013.835a.526.526,0,1,1-.526.526A.526.526,0,0,1,131.413,89.174Zm-1.79,0a.526.526,0,1,1-.526.526A.526.526,0,0,1,129.622,89.174Zm-1.79,0a.526.526,0,1,1-.526.526A.526.526,0,0,1,127.832,89.174Zm3.97-2v-.9a2.179,2.179,0,1,0-4.359,0v.9h.492v-.9a1.687,1.687,0,0,1,3.375,0v.9Z" transform="translate(-126.4 -84.101)" fill="#484848"/>
</svg>
