<svg width="61" height="52" viewBox="0 0 61 52" fill="none" xmlns="http://www.w3.org/2000/svg">
<path d="M60.5523 26.2711C60.014 25.55 47.014 8.71094 30.5 8.71094C28.9322 8.71441 27.3681 8.86401 25.8281 9.15781C25.5613 9.20209 25.306 9.2992 25.0772 9.44345C24.8485 9.5877 24.6508 9.77618 24.4959 9.99784C24.3409 10.2195 24.2318 10.4699 24.1749 10.7343C24.118 10.9986 24.1144 11.2717 24.1645 11.5375C24.2145 11.8033 24.3171 12.0564 24.4663 12.282C24.6155 12.5076 24.8082 12.7011 25.0331 12.8512C25.2581 13.0014 25.5108 13.105 25.7763 13.1562C26.0419 13.2074 26.315 13.205 26.5796 13.1492C27.8719 12.9027 29.1844 12.7769 30.5 12.7734C42.5859 12.7734 53.0773 23.7625 56.307 27.5C54.2269 29.9055 51.9472 32.1309 49.4921 34.1523C49.2848 34.3213 49.1128 34.5296 48.9861 34.7651C48.8595 35.0007 48.7806 35.259 48.754 35.5252C48.7274 35.7914 48.7537 36.0602 48.8312 36.3161C48.9088 36.5721 49.0362 36.8103 49.206 37.0169C49.3759 37.2236 49.5849 37.3946 49.821 37.5203C50.0572 37.6459 50.3158 37.7237 50.5821 37.7491C50.8484 37.7745 51.117 37.7471 51.3727 37.6685C51.6283 37.5898 51.8659 37.4614 52.0718 37.2906C55.1931 34.7442 58.0358 31.8743 60.5523 28.7289C60.8208 28.3755 60.9662 27.9439 60.9662 27.5C60.9662 27.0561 60.8208 26.6245 60.5523 26.2711Z" fill="#A8A8A8"/>
<path d="M47.1562 37.9506L38.2187 29.0131L28.9867 19.781L21.0445 11.8388L10.4414 1.23571C10.2506 1.04765 10.0247 0.898999 9.77656 0.798244C9.52839 0.697489 9.2628 0.646602 8.99496 0.648488C8.45404 0.652297 7.93678 0.870832 7.55698 1.25602C7.36893 1.44674 7.22028 1.67264 7.11952 1.92081C7.01877 2.16899 6.96788 2.43457 6.96977 2.70241C6.97358 3.24334 7.19211 3.76059 7.5773 4.14039L16.2 12.763C10.1533 16.2446 4.81071 20.8259 0.447609 26.2709C0.179075 26.6243 0.0336914 27.0559 0.0336914 27.4998C0.0336914 27.9436 0.179075 28.3753 0.447609 28.7287C0.98589 29.4498 13.9859 46.2888 30.5 46.2888C35.7624 46.1673 40.9004 44.6648 45.3992 41.9318L53.8593 50.4224C54.0481 50.6111 54.2721 50.7609 54.5187 50.863C54.7653 50.9651 55.0295 51.0177 55.2964 51.0177C55.5633 51.0177 55.8276 50.9651 56.0742 50.863C56.3208 50.7609 56.5448 50.6111 56.7336 50.4224C56.9223 50.2337 57.072 50.0097 57.1741 49.7631C57.2762 49.5165 57.3288 49.2522 57.3288 48.9853C57.3288 48.7184 57.2762 48.4541 57.1741 48.2076C57.072 47.961 56.9223 47.7369 56.7336 47.5482L47.1562 37.9506ZM27.2703 23.8029L34.207 30.7396C33.7636 31.2455 33.221 31.6551 32.613 31.9428C32.0049 32.2306 31.3442 32.3905 30.6718 32.4126C29.9994 32.4347 29.3297 32.3186 28.704 32.0714C28.0783 31.8242 27.51 31.4512 27.0343 30.9755C26.5587 30.4998 26.1857 29.9316 25.9385 29.3059C25.6913 28.6802 25.5751 28.0104 25.5973 27.3381C25.6194 26.6657 25.7793 26.005 26.067 25.3969C26.3548 24.7888 26.7643 24.2463 27.2703 23.8029ZM30.5 42.2263C18.414 42.2263 7.92261 31.2373 4.69292 27.4998C8.76377 22.7191 13.6801 18.7289 19.196 15.7287L24.4062 20.9287C23.5008 21.7429 22.7707 22.733 22.2604 23.8386C21.7502 24.9442 21.4704 26.1421 21.4381 27.3593C21.4059 28.5766 21.6219 29.7876 22.0729 30.9187C22.524 32.0497 23.2006 33.077 24.0617 33.9381C24.9227 34.7991 25.95 35.4757 27.0811 35.9268C28.2121 36.3778 29.4232 36.5938 30.6404 36.5616C31.8576 36.5293 33.0556 36.2496 34.1611 35.7393C35.2667 35.229 36.2568 34.4989 37.071 33.5935L42.4234 38.9459C38.78 41.0053 34.6841 42.1322 30.5 42.2263Z" fill="#A8A8A8"/>
</svg>
