<svg xmlns="http://www.w3.org/2000/svg" xmlns:xlink="http://www.w3.org/1999/xlink" width="373.439" height="249.041" viewBox="0 0 373.439 249.041">
  <defs>
    <clipPath id="clip-path">
      <rect id="Rectangle_9238" data-name="Rectangle 9238" width="373.439" height="249.041" fill="none"/>
    </clipPath>
  </defs>
  <g id="Group_46610" data-name="Group 46610" style="mix-blend-mode: multiply;isolation: isolate">
    <g id="Group_46610-2" data-name="Group 46610" transform="translate(0 0)" clip-path="url(#clip-path)">
      <path id="Path_19204" data-name="Path 19204" d="M933.572,1220.656a7.54,7.54,0,0,0-.9.06,27.659,27.659,0,0,0-2.709-8.293,8.4,8.4,0,0,0,.727-.59c3.132-2.88,3.54-7.549.912-10.43s-7.3-2.88-10.429,0a8.5,8.5,0,0,0-.65.675,27.41,27.41,0,0,0-7.993-3.434,7.671,7.671,0,0,0,.138-.9,6.65,6.65,0,0,0-6.73-7.375,8.21,8.21,0,0,0-8.02,7.375,7.4,7.4,0,0,0-.019.9,32.961,32.961,0,0,0-8.594,3.434,6.55,6.55,0,0,0-.532-.675c-2.628-2.88-7.3-2.88-10.429,0s-3.54,7.55-.912,10.43a6.473,6.473,0,0,0,.623.59,33.224,33.224,0,0,0-4.161,8.293,7.275,7.275,0,0,0-.89-.06,8.21,8.21,0,0,0-8.02,7.375,6.65,6.65,0,0,0,6.729,7.375,7.562,7.562,0,0,0,.9-.059,27.65,27.65,0,0,0,2.71,8.293,8.37,8.37,0,0,0-.727.59c-3.132,2.88-3.541,7.549-.912,10.429s7.3,2.88,10.429,0a8.409,8.409,0,0,0,.65-.675,27.412,27.412,0,0,0,7.993,3.435,7.618,7.618,0,0,0-.138.9,6.65,6.65,0,0,0,6.729,7.375,8.21,8.21,0,0,0,8.02-7.375,7.355,7.355,0,0,0,.019-.9,32.956,32.956,0,0,0,8.594-3.435,6.49,6.49,0,0,0,.532.675c2.628,2.88,7.3,2.88,10.429,0s3.54-7.549.912-10.429a6.478,6.478,0,0,0-.623-.59,33.221,33.221,0,0,0,4.161-8.293,7.28,7.28,0,0,0,.89.059,8.21,8.21,0,0,0,8.02-7.375,6.65,6.65,0,0,0-6.729-7.375m-32.127,21.07a12.349,12.349,0,0,1-12.5-13.7,15.247,15.247,0,0,1,14.894-13.7,12.349,12.349,0,0,1,12.5,13.7,15.247,15.247,0,0,1-14.894,13.7" transform="translate(-747.246 -1028.378)" fill="#e2eaff"/>
      <path id="Path_19205" data-name="Path 19205" d="M1331.771,311.593H1151.121a3.071,3.071,0,0,1-3.108-3.406L1168.3,76.353a3.791,3.791,0,0,1,3.7-3.406h180.649a3.071,3.071,0,0,1,3.108,3.406l-20.283,231.833a3.792,3.792,0,0,1-3.7,3.406" transform="translate(-991.771 -63.02)"/>
      <path id="Path_19206" data-name="Path 19206" d="M1287.7,311.593H1107.051a3.071,3.071,0,0,1-3.108-3.406l20.283-231.833a3.792,3.792,0,0,1,3.7-3.406h180.649a3.071,3.071,0,0,1,3.108,3.406L1291.4,308.187a3.792,3.792,0,0,1-3.7,3.406" transform="translate(-953.698 -63.02)" fill="#fff"/>
      <path id="Path_19207" data-name="Path 19207" d="M1285.8,309.991H1105.148a3.37,3.37,0,0,1-3.407-3.732l20.283-231.833a4.1,4.1,0,0,1,4-3.68h180.649a3.37,3.37,0,0,1,3.406,3.732L1289.8,306.311a4.1,4.1,0,0,1-4,3.68M1126.027,71.345a3.491,3.491,0,0,0-3.405,3.132l-20.283,231.833a2.772,2.772,0,0,0,2.81,3.08H1285.8a3.49,3.49,0,0,0,3.406-3.132l20.283-231.833a2.772,2.772,0,0,0-2.809-3.08Z" transform="translate(-951.795 -61.118)"/>
      <path id="Path_19208" data-name="Path 19208" d="M1345.784,362.111h-167.97a.3.3,0,0,1-.3-.326l19.173-219.154a.3.3,0,0,1,.3-.274h167.97a.3.3,0,0,1,.3.326l-19.173,219.155a.3.3,0,0,1-.3.273m-167.643-.6H1345.51l19.121-218.555H1197.262Z" transform="translate(-1017.269 -122.984)"/>
      <path id="Path_19209" data-name="Path 19209" d="M1654.872,34.538h-79.431a9.992,9.992,0,0,1-10.112-11.081l1.583-18.1h101.594l-1.583,18.1a12.337,12.337,0,0,1-12.051,11.081" transform="translate(-1352.27 -4.632)" fill="#e2eaff"/>
      <path id="Path_19210" data-name="Path 19210" d="M2222,367.5h-27.929a.3.3,0,0,1-.3-.326l2.222-25.4a.3.3,0,0,1,.3-.274h27.929a.3.3,0,0,1,.3.326l-2.223,25.4a.3.3,0,0,1-.3.273m-27.6-.6h27.327l2.17-24.8h-27.327Z" transform="translate(-1895.225 -295.02)"/>
      <path id="Path_19211" data-name="Path 19211" d="M1406.78,369.1h81.384l2.223-25.4H1409Z" transform="translate(-1215.334 -296.922)" fill="#e2eaff"/>
      <path id="Path_19212" data-name="Path 19212" d="M1521.975,628.972H1386.647a.3.3,0,0,1-.3-.326l1.491-17.038a.3.3,0,0,1,.3-.273h135.329a.3.3,0,0,1,.3.326l-1.49,17.038a.3.3,0,0,1-.3.273m-135-.6H1521.7l1.438-16.439H1388.412Z" transform="translate(-1197.682 -528.14)"/>
      <path id="Path_19213" data-name="Path 19213" d="M1694.257,628.971h-.026a.3.3,0,0,1-.273-.325l1.49-17.038a.3.3,0,0,1,.6.052l-1.49,17.038a.3.3,0,0,1-.3.274" transform="translate(-1463.43 -528.139)"/>
      <path id="Path_19214" data-name="Path 19214" d="M2112.721,652.5H2075.26a.3.3,0,0,1,0-.6h37.461a.3.3,0,0,1,0,.6" transform="translate(-1792.583 -563.183)"/>
      <path id="Path_19215" data-name="Path 19215" d="M1773.719,652.5H1736.33a.3.3,0,0,1,0-.6h37.389a.3.3,0,0,1,0,.6" transform="translate(-1499.777 -563.183)"/>
      <path id="Path_19216" data-name="Path 19216" d="M2042.479,674.533h-48.222a.3.3,0,1,1,0-.6h48.222a.3.3,0,0,1,0,.6" transform="translate(-1722.603 -582.22)"/>
      <path id="Path_19217" data-name="Path 19217" d="M1761.029,674.533H1734.4a.3.3,0,0,1,0-.6h26.628a.3.3,0,0,1,0,.6" transform="translate(-1498.112 -582.22)"/>
      <path id="Path_19218" data-name="Path 19218" d="M2131.711,696.568H2097.85a.3.3,0,1,1,0-.6h33.861a.3.3,0,1,1,0,.6" transform="translate(-1812.099 -601.256)"/>
      <path id="Path_19219" data-name="Path 19219" d="M1773.462,696.568h-40.988a.3.3,0,0,1,0-.6h40.988a.3.3,0,1,1,0,.6" transform="translate(-1496.446 -601.256)"/>
      <path id="Path_19220" data-name="Path 19220" d="M1471.347,662.021h-20.873a2.157,2.157,0,0,1-2.177-2.639,3.279,3.279,0,0,1,3.1-2.639h20.873a2.157,2.157,0,0,1,2.177,2.639,3.279,3.279,0,0,1-3.1,2.639" transform="translate(-1251.166 -567.368)" fill="#e2eaff"/>
      <path id="Path_19221" data-name="Path 19221" d="M1502.647,849.889H1367.318a.3.3,0,0,1-.3-.326l1.491-17.038a.3.3,0,0,1,.3-.273h135.329a.3.3,0,0,1,.3.326l-1.491,17.038a.3.3,0,0,1-.3.273m-135-.6h134.727l1.438-16.439H1369.084Z" transform="translate(-1180.984 -718.992)"/>
      <path id="Path_19222" data-name="Path 19222" d="M1674.93,849.888h-.027a.3.3,0,0,1-.272-.325l1.491-17.038a.3.3,0,1,1,.6.052l-1.491,17.038a.3.3,0,0,1-.3.274" transform="translate(-1446.732 -718.991)"/>
      <path id="Path_19223" data-name="Path 19223" d="M2247.008,873.415h-13.471a.3.3,0,1,1,0-.6h13.471a.3.3,0,0,1,0,.6" transform="translate(-1929.32 -754.036)"/>
      <path id="Path_19224" data-name="Path 19224" d="M1779.7,873.415h-61.379a.3.3,0,1,1,0-.6H1779.7a.3.3,0,0,1,0,.6" transform="translate(-1484.223 -754.036)"/>
      <path id="Path_19225" data-name="Path 19225" d="M2176.765,895.451h-24.233a.3.3,0,0,1,0-.6h24.233a.3.3,0,0,1,0,.6" transform="translate(-1859.34 -773.073)"/>
      <path id="Path_19226" data-name="Path 19226" d="M1767.015,895.451H1716.4a.3.3,0,0,1,0-.6h50.617a.3.3,0,1,1,0,.6" transform="translate(-1482.558 -773.073)"/>
      <path id="Path_19227" data-name="Path 19227" d="M1961.417,917.486h-57.851a.3.3,0,1,1,0-.6h57.851a.3.3,0,1,1,0,.6" transform="translate(-1644.254 -792.11)"/>
      <path id="Path_19228" data-name="Path 19228" d="M1731.469,917.486h-17a.3.3,0,1,1,0-.6h17a.3.3,0,1,1,0,.6" transform="translate(-1480.893 -792.11)"/>
      <path id="Path_19229" data-name="Path 19229" d="M1455.653,882.315H1434.78a2.157,2.157,0,0,1-2.178-2.639,3.28,3.28,0,0,1,3.1-2.639h20.873a2.157,2.157,0,0,1,2.177,2.639,3.279,3.279,0,0,1-3.1,2.639" transform="translate(-1237.607 -757.683)" fill="#e2eaff"/>
      <path id="Path_19230" data-name="Path 19230" d="M1483.32,1070.807H1347.991a.3.3,0,0,1-.3-.326l1.491-17.038a.3.3,0,0,1,.3-.273h135.329a.3.3,0,0,1,.3.326l-1.491,17.038a.3.3,0,0,1-.3.274m-135-.6h134.727l1.438-16.439H1349.756Z" transform="translate(-1164.287 -909.846)"/>
      <path id="Path_19231" data-name="Path 19231" d="M1655.6,1070.806h-.026a.3.3,0,0,1-.273-.325l1.491-17.038a.3.3,0,0,1,.6.052l-1.491,17.038a.3.3,0,0,1-.3.273" transform="translate(-1430.034 -909.845)"/>
      <path id="Path_19232" data-name="Path 19232" d="M2072.216,1094.333h-37.461a.3.3,0,1,1,0-.6h37.461a.3.3,0,1,1,0,.6" transform="translate(-1757.59 -944.89)"/>
      <path id="Path_19233" data-name="Path 19233" d="M1733.215,1094.333h-37.389a.3.3,0,1,1,0-.6h37.389a.3.3,0,0,1,0,.6" transform="translate(-1464.785 -944.89)"/>
      <path id="Path_19234" data-name="Path 19234" d="M2001.974,1116.368h-48.222a.3.3,0,1,1,0-.6h48.222a.3.3,0,1,1,0,.6" transform="translate(-1687.611 -963.926)"/>
      <path id="Path_19235" data-name="Path 19235" d="M1720.525,1116.368H1693.9a.3.3,0,1,1,0-.6h26.628a.3.3,0,1,1,0,.6" transform="translate(-1463.119 -963.926)"/>
      <path id="Path_19236" data-name="Path 19236" d="M2091.208,1138.4h-33.862a.3.3,0,1,1,0-.6h33.862a.3.3,0,0,1,0,.6" transform="translate(-1777.107 -982.964)"/>
      <path id="Path_19237" data-name="Path 19237" d="M1732.957,1138.4h-40.988a.3.3,0,0,1,0-.6h40.988a.3.3,0,1,1,0,.6" transform="translate(-1461.453 -982.964)"/>
      <path id="Path_19238" data-name="Path 19238" d="M1433.065,1103.856h-20.873a2.157,2.157,0,0,1-2.177-2.639,3.28,3.28,0,0,1,3.1-2.639h20.873a2.157,2.157,0,0,1,2.177,2.639,3.279,3.279,0,0,1-3.1,2.639" transform="translate(-1218.093 -949.075)" fill="#e2eaff"/>
      <path id="Path_19239" data-name="Path 19239" d="M1463.992,1291.725H1328.663a.3.3,0,0,1-.3-.326l1.491-17.038a.3.3,0,0,1,.3-.273h135.329a.3.3,0,0,1,.3.325l-1.491,17.038a.3.3,0,0,1-.3.274m-135-.6h134.727l1.438-16.439H1330.429Z" transform="translate(-1147.589 -1100.7)"/>
      <path id="Path_19240" data-name="Path 19240" d="M1636.274,1291.722h-.026a.3.3,0,0,1-.273-.325l1.491-17.037a.3.3,0,1,1,.6.052l-1.491,17.038a.3.3,0,0,1-.3.274" transform="translate(-1413.337 -1100.697)"/>
      <path id="Path_19241" data-name="Path 19241" d="M2091.688,1315.251h-31.464a.3.3,0,0,1,0-.6h31.464a.3.3,0,0,1,0,.6" transform="translate(-1779.594 -1135.744)"/>
      <path id="Path_19242" data-name="Path 19242" d="M1720.611,1315.251h-43.387a.3.3,0,0,1,0-.6h43.387a.3.3,0,0,1,0,.6" transform="translate(-1448.716 -1135.744)"/>
      <path id="Path_19243" data-name="Path 19243" d="M1945.3,1337.286h-54.219a.3.3,0,1,1,0-.6H1945.3a.3.3,0,0,1,0,.6" transform="translate(-1633.469 -1154.78)"/>
      <path id="Path_19244" data-name="Path 19244" d="M1695.926,1337.286H1675.3a.3.3,0,0,1,0-.6h20.63a.3.3,0,1,1,0,.6" transform="translate(-1447.049 -1154.78)"/>
      <path id="Path_19245" data-name="Path 19245" d="M2110.679,1359.32h-27.865a.3.3,0,0,1,0-.6h27.865a.3.3,0,0,1,0,.6" transform="translate(-1799.11 -1173.815)"/>
      <path id="Path_19246" data-name="Path 19246" d="M1720.354,1359.32h-46.985a.3.3,0,0,1,0-.6h46.985a.3.3,0,0,1,0,.6" transform="translate(-1445.384 -1173.815)"/>
      <path id="Path_19247" data-name="Path 19247" d="M1416.8,1324.773h-20.873a2.157,2.157,0,0,1-2.177-2.639,3.28,3.28,0,0,1,3.1-2.639h20.873a2.157,2.157,0,0,1,2.177,2.639,3.279,3.279,0,0,1-3.1,2.639" transform="translate(-1204.042 -1139.927)" fill="#e2eaff"/>
      <path id="Path_19248" data-name="Path 19248" d="M775.132,202.142H747.659a.3.3,0,1,1,0-.6h27.473a.3.3,0,0,1,0,.6" transform="translate(-645.652 -174.115)"/>
      <path id="Path_19249" data-name="Path 19249" d="M1055.6,202.142h-12.532a.3.3,0,1,1,0-.6H1055.6a.3.3,0,0,1,0,.6" transform="translate(-900.861 -174.115)"/>
      <path id="Path_19250" data-name="Path 19250" d="M762.357,146.947h-9.869a.3.3,0,1,1,0-.6h9.869a.3.3,0,0,1,0,.6" transform="translate(-649.825 -126.432)"/>
      <path id="Path_19251" data-name="Path 19251" d="M938.369,146.947H906.61a.3.3,0,1,1,0-.6h31.759a.3.3,0,0,1,0,.6" transform="translate(-782.972 -126.432)"/>
      <path id="Path_19252" data-name="Path 19252" d="M784.791,91.752H757.318a.3.3,0,1,1,0-.6h27.473a.3.3,0,1,1,0,.6" transform="translate(-653.997 -78.748)"/>
      <path id="Path_19253" data-name="Path 19253" d="M1065.258,91.752h-12.532a.3.3,0,0,1,0-.6h12.532a.3.3,0,0,1,0,.6" transform="translate(-909.204 -78.748)"/>
      <path id="Path_19254" data-name="Path 19254" d="M1012.386,268.858H929.512a.3.3,0,0,1-.3-.326l2.235-25.55a.3.3,0,0,1,.6.052l-2.207,25.224h82.547a.3.3,0,0,1,0,.6" transform="translate(-802.758 -209.679)"/>
      <path id="Path_19255" data-name="Path 19255" d="M1507.053,408.358a4.033,4.033,0,0,0,4.081,4.472,4.979,4.979,0,0,0,4.864-4.472,4.033,4.033,0,0,0-4.081-4.473,4.979,4.979,0,0,0-4.864,4.473" transform="translate(-1301.946 -348.922)" fill="#5479f7"/>
      <path id="Path_19256" data-name="Path 19256" d="M2523.116,19.351a19.1,19.1,0,0,1-18.662,17.16,15.474,15.474,0,0,1-15.659-17.16,19.1,19.1,0,0,1,18.662-17.16,15.474,15.474,0,0,1,15.659,17.16" transform="translate(-2150.043 -1.893)" fill="#5479f7"/>
      <path id="Path_19257" data-name="Path 19257" d="M2566.187,92.679a.449.449,0,0,1-.343-.159l-6.512-7.676a.45.45,0,1,1,.686-.582l6.126,7.222,9.1-13.62a.449.449,0,1,1,.748.5l-9.427,14.115a.45.45,0,0,1-.348.2h-.025" transform="translate(-2210.946 -67.096)" fill="#fff"/>
      <path id="Path_19258" data-name="Path 19258" d="M2491.545,1697.866h-39.137a.3.3,0,1,1,0-.6h38.837v-19.72a.3.3,0,0,1,.6,0v20.02a.3.3,0,0,1-.3.3" transform="translate(-2118.406 -1448.994)"/>
      <path id="Path_19259" data-name="Path 19259" d="M153.513,1514.406H.485a.3.3,0,0,1-.3-.3v-48.92a.3.3,0,1,1,.6,0v48.62H153.513a.3.3,0,1,1,0,.6" transform="translate(-0.16 -1265.533)"/>
      <path id="Path_19260" data-name="Path 19260" d="M165.946,1323.867l2.833-79.187-53.675,1.832L77.16,1323.867Z" transform="translate(-66.66 -1075.294)" fill="#fff"/>
      <path id="Path_19261" data-name="Path 19261" d="M164.044,1322.263H75.258a.3.3,0,0,1-.269-.432l37.944-77.355a.3.3,0,0,1,.259-.167l53.675-1.832a.294.294,0,0,1,.222.088.3.3,0,0,1,.088.222l-2.834,79.187a.3.3,0,0,1-.3.289m-88.3-.6h88.016l2.812-78.577-53.174,1.814Z" transform="translate(-64.758 -1073.391)"/>
      <path id="Path_19262" data-name="Path 19262" d="M422.8,1478.25a.3.3,0,0,1-.274-.421l21.352-47.97a11.561,11.561,0,0,1,5.727-5.767l2.67-1.224a.3.3,0,1,1,.25.545l-2.67,1.224a10.96,10.96,0,0,0-5.429,5.467l-21.352,47.969a.3.3,0,0,1-.274.178" transform="translate(-365.005 -1229.209)"/>
      <path id="Path_19263" data-name="Path 19263" d="M333.008,489.585c-2.533-15.572,17.366-22.516,33.233-33.073,4.627-3.078,9.444-6.089,14.851-7.372s11.578-.574,15.726,3.125c4.9,4.371,5.856,11.67,5.436,18.225a62.943,62.943,0,0,1-27.284,47.464c-12.067,8.1-38.474-6.928-41.962-28.368" transform="translate(-287.5 -387.507)"/>
      <path id="Path_19264" data-name="Path 19264" d="M1269.505,411.774a.305.305,0,0,1-.091-.014.3.3,0,0,1-.195-.377c.393-1.234.808-2.555,1.238-3.921,2.506-7.968,5.346-17,6.989-19.551,2.126-3.3-.409-5.4-.518-5.487a.3.3,0,0,1-.1-.329c.862-2.574-1.939-3.853-2.059-3.906a.3.3,0,0,1-.178-.272,2.191,2.191,0,0,0-.865-2.048c-1.49-.854-4.44.832-4.469.849a.3.3,0,0,1-.443-.2c-.309-1.484,1.687-3.527,3.449-5.33,1.071-1.1,2.286-2.339,2.24-2.809a.088.088,0,0,0-.048-.074,3.83,3.83,0,0,0-3.036-.163c-3.325.825-10.35,4.986-20.035,23.58-.652,1.252-1.338,2.544-2.095,3.948a.3.3,0,1,1-.528-.284c.756-1.4,1.44-2.69,2.091-3.94,9.794-18.8,17-23.035,20.422-23.885a4.547,4.547,0,0,1,3.521.251.685.685,0,0,1,.3.509c.069.713-.824,1.665-2.408,3.286-1.4,1.428-3.092,3.165-3.292,4.357.953-.473,3.212-1.425,4.624-.617a2.636,2.636,0,0,1,1.163,2.38c.667.358,2.991,1.812,2.268,4.369a4.621,4.621,0,0,1,.492,6.137c-1.6,2.484-4.55,11.867-6.921,19.406-.429,1.366-.845,2.688-1.238,3.922a.3.3,0,0,1-.286.209" transform="translate(-1078.792 -317.358)"/>
      <path id="Path_19265" data-name="Path 19265" d="M794.629,384.1c.959-2.862-2.221-4.275-2.221-4.275-.034-4.784-5.784-1.457-5.784-1.457-.524-2.51,6.931-7.424,5.518-8.4s-10.034-2.34-23.508,23.525c-.71,1.364-1.406,2.671-2.093,3.944-12.326,22.858-20.611,31.146-20.611,31.146s-32.625-2.065-45.536-2.065c-11.97,0-10.042,30.7-10.042,30.7s40.166,5.533,62.836,2.295c16.068-2.295,29.857-34.322,32.368-41.657.427-1.248.923-2.779,1.462-4.472,2.626-8.254,6.287-20.439,8.193-23.4a4.31,4.31,0,0,0-.582-5.882" transform="translate(-596.305 -319.264)" fill="#fff"/>
      <path id="Path_19266" data-name="Path 19266" d="M733.908,458.909c-21.252,0-45.251-3.263-45.561-3.305a.3.3,0,0,1-.258-.278c-.055-.883-1.283-21.721,5.311-28.743a6.712,6.712,0,0,1,5.03-2.273c12.347,0,43.084,1.911,45.417,2.057.946-.991,9-9.717,20.466-30.981.761-1.411,1.445-2.7,2.09-3.94,9.795-18.8,17-23.035,20.423-23.885a4.547,4.547,0,0,1,3.521.251.684.684,0,0,1,.3.51c.069.713-.824,1.665-2.408,3.286-1.4,1.428-3.092,3.165-3.292,4.357.952-.473,3.212-1.424,4.624-.617a2.636,2.636,0,0,1,1.163,2.38c.667.358,2.991,1.812,2.267,4.369a4.621,4.621,0,0,1,.492,6.137c-1.6,2.484-4.549,11.865-6.92,19.4-.43,1.367-.846,2.69-1.239,3.926-.621,1.951-1.086,3.374-1.464,4.478-2.829,8.262-16.652,39.578-32.609,41.857a126.773,126.773,0,0,1-17.358,1.011m-45.235-3.866c3.406.454,41.057,5.327,62.508,2.262,15.655-2.236,29.324-33.27,32.127-41.458.376-1.1.84-2.519,1.46-4.466.393-1.234.809-2.557,1.239-3.924,2.506-7.967,5.345-17,6.988-19.548a3.993,3.993,0,0,0-.518-5.487.3.3,0,0,1-.1-.328c.862-2.574-1.939-3.853-2.058-3.906a.3.3,0,0,1-.178-.272,2.191,2.191,0,0,0-.865-2.048c-1.49-.853-4.44.832-4.469.849a.3.3,0,0,1-.443-.2c-.309-1.484,1.687-3.527,3.449-5.33,1.071-1.1,2.286-2.339,2.24-2.809a.089.089,0,0,0-.048-.074,3.829,3.829,0,0,0-3.036-.163c-3.325.825-10.35,4.986-20.036,23.58-.647,1.243-1.332,2.534-2.094,3.947-12.206,22.635-20.579,31.133-20.663,31.216a.3.3,0,0,1-.231.087c-.326-.021-32.763-2.065-45.517-2.065a6.135,6.135,0,0,0-4.593,2.083c-6.043,6.434-5.284,25.651-5.163,28.05" transform="translate(-594.34 -317.357)"/>
      <path id="Path_19267" data-name="Path 19267" d="M1385.962,448.444a.3.3,0,0,1-.052-.595c4.195-.742,7.007-4.879,7.034-4.921a.3.3,0,1,1,.5.333c-.12.179-2.978,4.39-7.428,5.178a.318.318,0,0,1-.052,0" transform="translate(-1197.09 -382.536)"/>
      <path id="Path_19268" data-name="Path 19268" d="M1408.071,479.518a.3.3,0,0,1-.038-.6c5.2-.681,6.182-4.447,6.191-4.485a.3.3,0,1,1,.582.142c-.01.042-1.09,4.2-6.7,4.937l-.039,0" transform="translate(-1216.191 -409.674)"/>
      <path id="Path_19269" data-name="Path 19269" d="M1412.531,528.541a.3.3,0,1,1,0-.6,7.941,7.941,0,0,0,5.607-2.542.3.3,0,0,1,.459.385,8.406,8.406,0,0,1-6.066,2.756" transform="translate(-1220.043 -453.807)"/>
      <path id="Path_19270" data-name="Path 19270" d="M1339.925,484.031a25.317,25.317,0,0,1,5.616-1.8c1.032-.2,2.3-.255,2.922.591a2.271,2.271,0,0,1-.068,2.38c-.862,1.578-2.566,2.465-4.123,3.363s-3.177,2.055-3.618,3.8Z" transform="translate(-1157.577 -416.494)" fill="#fff"/>
      <path id="Path_19271" data-name="Path 19271" d="M1338.751,490.766a.286.286,0,0,1-.074-.009.3.3,0,0,1-.217-.364c.474-1.873,2.166-3.065,3.758-3.985l.356-.2a8.874,8.874,0,0,0,3.654-3.043,2.017,2.017,0,0,0,.09-2.059c-.423-.573-1.305-.733-2.623-.475a25.008,25.008,0,0,0-5.55,1.782.3.3,0,1,1-.249-.546,25.627,25.627,0,0,1,5.683-1.825c1.565-.307,2.649-.069,3.221.707a2.564,2.564,0,0,1-.046,2.7,9.307,9.307,0,0,1-3.882,3.276l-.355.2c-1.484.857-3.058,1.956-3.477,3.612a.3.3,0,0,1-.29.226" transform="translate(-1155.673 -414.599)"/>
      <path id="Path_19272" data-name="Path 19272" d="M1076.924,812.986a.3.3,0,0,1-.253-.46l2.217-3.5a.3.3,0,1,1,.506.321l-2.217,3.5a.3.3,0,0,1-.253.139" transform="translate(-930.109 -698.809)"/>
      <path id="Path_19273" data-name="Path 19273" d="M370.461,842.885l12.27-78.315s26.273-3.7,47.663,1.347c0,0-.717,59.579-2.436,78.831Z" transform="translate(-320.046 -659.389)" fill="#5479f7"/>
      <path id="Path_19274" data-name="Path 19274" d="M252.217,829.74c-1.119.679-1.758,1.078-1.758,1.078s12.446-47.424,8.058-59.17c0,0-17.939,6.246-28.68,40.956s5.281,46.5,16.647,46.705a13.82,13.82,0,0,0,5.733-1.558Z" transform="translate(-195.495 -666.636)" fill="#fff"/>
      <path id="Path_19275" data-name="Path 19275" d="M242.98,857.67a17.259,17.259,0,0,1-9.4-2.927,21.973,21.973,0,0,1-8.729-11.273c-3.172-10.041-2.263-21.6,2.7-34.364,3.169-12.665,8.943-23.4,17.162-31.9.541-.465,1.053-.94,1.549-1.4a19.148,19.148,0,0,1,5.09-3.741l.86-.86a.3.3,0,0,1,.078-.056c.458-.229.874-.46,1.277-.683a19.056,19.056,0,0,1,2-1,.3.3,0,0,1,.229.554,18.675,18.675,0,0,0-1.935.974c-.4.219-.8.445-1.256.672l-.865.865a.3.3,0,0,1-.09.062,18.555,18.555,0,0,0-4.977,3.656c-.5.463-1.017.941-1.546,1.395-8.242,8.528-13.808,18.879-17,31.625a.273.273,0,0,1-.011.036c-4.916,12.639-5.821,24.071-2.692,33.979,2.873,8.617,12.286,15.974,21.717,13.186a.3.3,0,0,1,.17.575,15.212,15.212,0,0,1-4.323.625" transform="translate(-192.648 -664.733)"/>
      <path id="Path_19276" data-name="Path 19276" d="M201.306,963.724,221.3,977.371,197,976.127,60.5,928.739c-4.116-1.429-6.489-5.364-5.3-8.789s5.49-5.043,9.606-3.614Z" transform="translate(-47.423 -791.185)" fill="#fff"/>
      <path id="Path_19277" data-name="Path 19277" d="M219.387,975.783h-.015l-24.3-1.244a.314.314,0,0,1-.083-.016l-136.5-47.388a9,9,0,0,1-4.8-3.774,6.318,6.318,0,0,1-.687-5.4c1.242-3.576,5.722-5.279,9.987-3.8l136.5,47.388a.3.3,0,0,1,.071.035l19.995,13.647a.3.3,0,0,1-.169.547m-24.244-1.841,23.194,1.187-19.081-13.023L62.793,914.732c-3.953-1.373-8.091.166-9.224,3.429a5.729,5.729,0,0,0,.634,4.89,8.4,8.4,0,0,0,4.481,3.517Z" transform="translate(-45.509 -789.298)"/>
      <path id="Path_19278" data-name="Path 19278" d="M1194.32,1327.1l11.346.581-9.335-6.372Z" transform="translate(-1031.787 -1141.496)"/>
      <path id="Path_19279" data-name="Path 19279" d="M160.563,932.55l-4.273,12.306a1.894,1.894,0,0,1-2.41,1.168l-.344-.119a1.894,1.894,0,0,1-1.168-2.41l4.273-12.306a1.893,1.893,0,0,1,2.41-1.168l.344.119a1.894,1.894,0,0,1,1.168,2.41" transform="translate(-131.541 -803.365)" fill="#fff"/>
      <path id="Path_19280" data-name="Path 19280" d="M152.592,944.528a2.181,2.181,0,0,1-.717-.122l-.344-.119a2.193,2.193,0,0,1-1.353-2.792l4.273-12.306a2.2,2.2,0,0,1,2.792-1.353l.344.12a2.194,2.194,0,0,1,1.353,2.792l-4.273,12.306a2.2,2.2,0,0,1-2.074,1.474m3.932-16.213a1.6,1.6,0,0,0-1.507,1.071l-4.273,12.306a1.594,1.594,0,0,0,.983,2.029l.344.119a1.6,1.6,0,0,0,2.029-.983l4.273-12.306a1.6,1.6,0,0,0-.983-2.029l-.344-.12a1.584,1.584,0,0,0-.521-.088m2.132,2.335h0Z" transform="translate(-129.634 -801.464)"/>
      <path id="Path_19281" data-name="Path 19281" d="M189.752,942.683l-4.273,12.306a1.894,1.894,0,0,1-2.41,1.168l-.344-.12a1.894,1.894,0,0,1-1.168-2.41l4.273-12.306a1.893,1.893,0,0,1,2.41-1.168l.344.119a1.894,1.894,0,0,1,1.168,2.41" transform="translate(-156.758 -812.119)" fill="#fff"/>
      <path id="Path_19282" data-name="Path 19282" d="M181.782,954.661a2.188,2.188,0,0,1-.718-.121l-.344-.12a2.194,2.194,0,0,1-1.353-2.792l4.273-12.306a2.2,2.2,0,0,1,2.791-1.353l.345.119a2.2,2.2,0,0,1,1.353,2.792l-4.273,12.306a2.2,2.2,0,0,1-2.074,1.474m3.932-16.213a1.6,1.6,0,0,0-1.507,1.071l-4.273,12.306a1.594,1.594,0,0,0,.983,2.029l.344.119a1.6,1.6,0,0,0,2.029-.983l4.273-12.306a1.6,1.6,0,0,0-.983-2.029l-.345-.12a1.584,1.584,0,0,0-.521-.088m2.132,2.335h0Z" transform="translate(-154.852 -810.219)"/>
      <path id="Path_19283" data-name="Path 19283" d="M1094.982,1327.436a.3.3,0,0,1-.237-.115,2.486,2.486,0,0,1,1.41-4.06.3.3,0,0,1,.142.582,1.888,1.888,0,0,0-1.08,3.109.3.3,0,0,1-.236.484" transform="translate(-945.249 -1143.174)"/>
      <path id="Path_19284" data-name="Path 19284" d="M1104.218,1300.837a.3.3,0,0,1-.236-.115,2.486,2.486,0,0,1,1.41-4.06.3.3,0,0,1,.142.582,1.888,1.888,0,0,0-1.08,3.109.3.3,0,0,1-.236.484" transform="translate(-953.228 -1120.195)"/>
      <path id="Path_19285" data-name="Path 19285" d="M1113.454,1274.238a.3.3,0,0,1-.236-.115,2.486,2.486,0,0,1,1.41-4.06.3.3,0,1,1,.142.582,1.888,1.888,0,0,0-1.08,3.109.3.3,0,0,1-.236.484" transform="translate(-961.207 -1097.215)"/>
      <path id="Path_19286" data-name="Path 19286" d="M377.986,1070.518a.3.3,0,0,1-.1-.017l-114.8-39.853a.3.3,0,1,1,.2-.566l114.8,39.853a.3.3,0,0,1-.1.583" transform="translate(-227.113 -889.886)"/>
      <path id="Path_19287" data-name="Path 19287" d="M387.267,1043.792a.3.3,0,0,1-.1-.017l-114.8-39.853a.3.3,0,0,1,.2-.566l114.8,39.853a.3.3,0,0,1-.1.583" transform="translate(-235.131 -866.797)"/>
      <path id="Path_19288" data-name="Path 19288" d="M374.672,1119.565c11.366.2,39.863-29.786,44.356-29.773,0,0,5.991,4.281,5.991-1.521,1.289,1.031,5.093,1.74,4.964-2.127,1.87.774,4.018.838,4.276-1.139.46-3.528-9.47-15.932-22.941-10.934s-32.672,17-32.672,17Z" transform="translate(-323.684 -926.892)" fill="#fff"/>
      <path id="Path_19289" data-name="Path 19289" d="M496.952,1097.112a.3.3,0,0,1-.145-.562,178.744,178.744,0,0,1,16.692-8.258.3.3,0,1,1,.231.553,178.157,178.157,0,0,0-16.634,8.23.3.3,0,0,1-.144.037" transform="translate(-429.064 -940.168)"/>
      <path id="Path_19290" data-name="Path 19290" d="M702.561,1141.885a8.561,8.561,0,0,1-4.028-1.575.3.3,0,0,1,.348-.488c.029.021,2.956,2.088,4.516,1.284.665-.343,1-1.2,1-2.56a.3.3,0,0,1,.487-.234,3.644,3.644,0,0,0,3.411.513,2.329,2.329,0,0,0,1.066-2.4.3.3,0,0,1,.414-.287,3.9,3.9,0,0,0,3.182.237,1.424,1.424,0,0,0,.682-1.138,6.438,6.438,0,0,0-1.437-3.679.3.3,0,0,1,.5-.337,6.853,6.853,0,0,1,1.536,4.093,2.012,2.012,0,0,1-.976,1.579,4.081,4.081,0,0,1-3.3-.044,2.686,2.686,0,0,1-1.395,2.507,4.15,4.15,0,0,1-3.585-.275,2.848,2.848,0,0,1-1.309,2.553,2.4,2.4,0,0,1-1.11.246" transform="translate(-603.363 -977.166)"/>
      <path id="Path_19291" data-name="Path 19291" d="M372.891,1357.876h-.126a.3.3,0,0,1-.294-.3.3.3,0,0,1,.305-.294c3.489.074,9.062-2.82,17.046-8.812a.3.3,0,0,1,.36.479c-8.114,6.089-13.615,8.933-17.291,8.933" transform="translate(-321.782 -1164.902)"/>
      <path id="Path_19292" data-name="Path 19292" d="M694.1,1149.118a.3.3,0,0,1-.283-.2c-.9-2.579-4.6-4.818-7.513-5.412a.3.3,0,0,1,.12-.588c3.144.642,6.98,2.988,7.959,5.8a.3.3,0,0,1-.283.4" transform="translate(-592.696 -987.374)"/>
      <path id="Path_19293" data-name="Path 19293" d="M723.444,1123.971a.3.3,0,0,1-.258-.146c-2.37-3.969-4.86-5.945-8.6-6.82a.3.3,0,1,1,.137-.583c3.911.916,6.51,2.972,8.973,7.1a.3.3,0,0,1-.257.453" transform="translate(-617.144 -964.483)"/>
      <path id="Path_19294" data-name="Path 19294" d="M604.634,622.546l-7.766,19.681s4.353,5.742,14.118,7.05,1.456-6.86,1.456-6.86l4.716-13.494Z" transform="translate(-515.641 -537.825)" fill="#fff"/>
      <path id="Path_19295" data-name="Path 19295" d="M635.678,531.853a17.428,17.428,0,0,1-2.857,8.442,10.552,10.552,0,0,1-7.441,4.574,10.391,10.391,0,0,1-7.252-2.368,16.4,16.4,0,0,1-4.594-6.23,6.294,6.294,0,0,1-6.234-4.306,4.659,4.659,0,0,1,.786-4.439,3.154,3.154,0,0,1,4.233-.441c.675.589,1.015,1.5,1.714,2.058a3.08,3.08,0,0,0,2.847.395,6.227,6.227,0,0,0,2.449-1.673,13.161,13.161,0,0,0,3.681-8.463c-.014.3,1.346,1.137,1.584,1.3a12.705,12.705,0,0,0,1.9,1.076,13.246,13.246,0,0,0,4.136,1.132,12.932,12.932,0,0,0,2.182.046,6.935,6.935,0,0,1,1.959-.187c1.171.319.914,2.546.963,3.449a37.955,37.955,0,0,1-.053,5.633" transform="translate(-524.452 -448.719)" fill="#fff"/>
      <path id="Path_19296" data-name="Path 19296" d="M622.7,543.3a10.916,10.916,0,0,1-6.689-2.466,16.451,16.451,0,0,1-4.6-6.155,6.662,6.662,0,0,1-6.331-4.527,4.909,4.909,0,0,1,.85-4.728,3.442,3.442,0,0,1,4.652-.465,5.479,5.479,0,0,1,.868,1.053,4.546,4.546,0,0,0,.836,1,2.77,2.77,0,0,0,2.567.343,5.822,5.822,0,0,0,2.327-1.6,12.892,12.892,0,0,0,3.6-8.267h0a.3.3,0,0,1,.6-.025,5.471,5.471,0,0,0,1.291.983c.074.048.132.086.167.11a12.443,12.443,0,0,0,1.852,1.05,12.889,12.889,0,0,0,4.042,1.107,12.668,12.668,0,0,0,2.131.045,5.394,5.394,0,0,0,.636-.1,3.25,3.25,0,0,1,1.42-.077c1.189.323,1.182,2.033,1.177,3.165,0,.214,0,.405.006.558a37.981,37.981,0,0,1-.054,5.677,17.569,17.569,0,0,1-2.91,8.586,10.859,10.859,0,0,1-7.659,4.7c-.257.023-.516.034-.776.034m-11.1-9.23a.3.3,0,0,1,.273.178,15.982,15.982,0,0,0,4.507,6.117,10.093,10.093,0,0,0,7.038,2.3,10.255,10.255,0,0,0,7.222-4.449,16.981,16.981,0,0,0,2.8-8.3,37.408,37.408,0,0,0,.052-5.589c-.009-.162-.008-.365-.007-.593,0-.948.01-2.381-.735-2.584a2.884,2.884,0,0,0-1.147.086,5.706,5.706,0,0,1-.713.111,13.335,13.335,0,0,1-2.232-.047,13.485,13.485,0,0,1-4.23-1.158,13.026,13.026,0,0,1-1.942-1.1l-.155-.1c-.445-.291-.775-.521-1.015-.712a13.521,13.521,0,0,1-3.71,7.939,6.385,6.385,0,0,1-2.571,1.748,3.369,3.369,0,0,1-3.127-.446,5.068,5.068,0,0,1-.954-1.124,4.969,4.969,0,0,0-.769-.943,2.865,2.865,0,0,0-3.813.416,4.37,4.37,0,0,0-.721,4.15,6.017,6.017,0,0,0,5.928,4.094h.02m9.775-16.554v0Z" transform="translate(-522.519 -446.815)"/>
      <path id="Path_19297" data-name="Path 19297" d="M634.427,602.169a.3.3,0,0,1-.3-.251,3.415,3.415,0,0,0-2.545-2.714.3.3,0,0,1,.135-.584,4.028,4.028,0,0,1,3,3.2.3.3,0,0,1-.247.344.322.322,0,0,1-.049,0" transform="translate(-545.435 -517.148)"/>
      <path id="Path_19298" data-name="Path 19298" d="M.486,585.27a.3.3,0,0,1-.3-.3V553.849a.3.3,0,0,1,.3-.3H48.424a.3.3,0,1,1,0,.6H.785v30.822a.3.3,0,0,1-.3.3" transform="translate(-0.161 -478.218)"/>
      <path id="Path_19299" data-name="Path 19299" d="M177.845,40.814c.239-1.536.413-3.039.7-4.561,2.253-11.768,8.851-11.924,8.785-21.216-.01-1.426-.059-8.3-4.926-11.454-.784-.507-2.809-1.852-5.008-1.23-2.642.748-3.878,3.859-5.309,7.605-.48,1.258-1.814,4.963-2.642,12.814-.392,3.714-.508,6.82-.539,8.993l-.027,2.067s5.471,8.218,5.238,13.9c2.007-3.146,3.495-5.177,3.495-5.177Z" transform="translate(-145.9 -1.893)" fill="#fff"/>
      <path id="Path_19300" data-name="Path 19300" d="M176.113,39.221a.319.319,0,0,1-.047,0,.3.3,0,0,1-.25-.342c.082-.525.156-1.046.23-1.566.14-.982.284-2,.477-3.006a25.867,25.867,0,0,1,5.194-11.489c1.942-2.7,3.619-5.024,3.586-9.668-.037-5.249-1.737-9.228-4.789-11.2l-.037-.024C179.67,1.4,177.783.173,175.749.749c-2.552.722-3.794,3.977-5.11,7.424a52.625,52.625,0,0,0-2.624,12.738c-.314,2.976-.495,5.993-.538,8.966a.3.3,0,0,1-.3.3.3.3,0,0,1-.3-.3c.043-2.991.225-6.026.541-9.02a53.191,53.191,0,0,1,2.661-12.889c1.371-3.591,2.666-6.982,5.507-7.787,2.3-.65,4.417.725,5.216,1.243l.037.024c3.227,2.089,5.025,6.246,5.063,11.7.034,4.84-1.7,7.242-3.7,10.023a25.351,25.351,0,0,0-5.091,11.252c-.19.994-.334,2-.472,2.977-.074.522-.149,1.046-.231,1.574a.3.3,0,0,1-.3.254" transform="translate(-144.168 -0.001)"/>
      <path id="Path_19301" data-name="Path 19301" d="M196.425,72.25a.3.3,0,0,1-.3-.254l-.086-.554a35.981,35.981,0,0,1-.567-6.145,31.446,31.446,0,0,1,1.509-8.654c.079-.276.155-.544.226-.8.442-1.592.8-2.593,1.251-3.86.316-.885.673-1.888,1.133-3.3,1-3.067,1.88-6.239,2.62-9.43a.3.3,0,0,1,.584.136c-.744,3.207-1.63,6.4-2.634,9.48-.463,1.422-.822,2.429-1.139,3.318-.448,1.256-.8,2.247-1.238,3.819-.072.259-.148.528-.227.806a30.941,30.941,0,0,0-1.486,8.494,35.478,35.478,0,0,0,.56,6.048l.086.556a.3.3,0,0,1-.251.342.306.306,0,0,1-.046,0" transform="translate(-168.874 -33.707)"/>
      <path id="Path_19302" data-name="Path 19302" d="M218.651,91.528a.3.3,0,0,1-.277-.185l-1.15-2.767a.3.3,0,0,1,.553-.23l1.149,2.767a.3.3,0,0,1-.277.415" transform="translate(-187.643 -76.163)"/>
      <path id="Path_19303" data-name="Path 19303" d="M210.879,141.462a.3.3,0,0,1-.106-.58c1.62-.614,4.255-1.632,4.588-1.81a.3.3,0,0,1,.494.191c.036.307.038.319-4.869,2.179a.3.3,0,0,1-.106.02" transform="translate(-181.922 -120.083)"/>
      <path id="Path_19304" data-name="Path 19304" d="M188.3,187.938a.3.3,0,0,1-.25-.135l-1.569-2.377a.3.3,0,1,1,.5-.33l1.569,2.377a.3.3,0,0,1-.25.465" transform="translate(-161.061 -159.791)"/>
      <path id="Path_19305" data-name="Path 19305" d="M198.573,246.343a.3.3,0,0,1-.224-.5l2.822-3.166a.3.3,0,0,1,.447.4l-2.822,3.166a.3.3,0,0,1-.224.1" transform="translate(-171.291 -209.565)"/>
      <path id="Path_19306" data-name="Path 19306" d="M24.55,181.878a25.626,25.626,0,0,0-1.473-6.164c-5.02-13-20.578-15.049-20.862-24.447-.025-.828-.06-3.045,1.481-4.374,2.236-1.929,6.694-1.044,9.113-.115a14.305,14.305,0,0,1,1.766.836C17.515,149.319,28,158.042,30.2,169.961l.255,1.319s-3.742,6.953-4.625,11.583c-.064.276-.4.381-.4.381h-.8Z" transform="translate(-1.908 -125.911)" fill="#fff"/>
      <path id="Path_19307" data-name="Path 19307" d="M22.642,180.277a.3.3,0,0,1-.3-.263,24.98,24.98,0,0,0-1.455-6.093c-2.489-6.443-7.627-10.182-12.16-13.48-4.6-3.348-8.576-6.24-8.722-11.066-.024-.782-.1-3.16,1.585-4.61,2.4-2.066,7.046-1.078,9.416-.168a14.439,14.439,0,0,1,1.809.856c2.58,1.5,13.5,10.217,15.766,22.552a.3.3,0,0,1-.589.109C25.766,156,15.05,147.442,12.517,145.972a14.1,14.1,0,0,0-1.723-.815c-2.091-.8-6.624-1.822-8.81.062-1.464,1.263-1.4,3.427-1.377,4.138.137,4.533,4,7.344,8.475,10.6,4.6,3.347,9.815,7.141,12.367,13.749a25.553,25.553,0,0,1,1.491,6.236.3.3,0,0,1-.261.334l-.037,0" transform="translate(0 -124.011)"/>
      <path id="Path_19308" data-name="Path 19308" d="M69.061,202.7a.3.3,0,0,1-.289-.22c-2.933-10.626-9.334-19.26-18.024-24.313-.4-.235-.467-.271-.521-.373a.3.3,0,0,1,.48-.35c.049.034.191.117.342.2,8.826,5.132,15.326,13.894,18.3,24.671a.3.3,0,0,1-.289.38" transform="translate(-43.362 -153.219)"/>
      <path id="Path_19309" data-name="Path 19309" d="M71.607,218.986a.3.3,0,0,1-.037-.6l4.493-.566a.3.3,0,1,1,.075.595l-4.493.566-.038,0" transform="translate(-61.604 -188.178)"/>
      <path id="Path_19310" data-name="Path 19310" d="M135.009,223.083h-.026a.3.3,0,0,1-.273-.324l.4-4.667a.3.3,0,0,1,.324-.273.3.3,0,0,1,.273.324l-.4,4.667a.3.3,0,0,1-.3.274" transform="translate(-116.376 -188.174)"/>
      <path id="Path_19311" data-name="Path 19311" d="M158.527,315.166a.3.3,0,0,1-.121-.026l-2.458-1.082a.3.3,0,1,1,.242-.548l2.458,1.082a.3.3,0,0,1-.121.574" transform="translate(-134.571 -270.823)"/>
      <path id="Path_19312" data-name="Path 19312" d="M196.838,232.294c-.346-.216-1.92-1.135-5.2-.43-6.685,1.435-11.936,7.775-12.443,8.4-8.5,10.49-10.037,23.973-8.287,24.574.4.137,1.88-1.56,4.828-4.958,7.261-8.371,7.162-8.29,7.7-8.884,8.438-9.388,16.071-10.457,15.692-15.091a5,5,0,0,0-2.282-3.61" transform="translate(-147.092 -200.084)" fill="#fff"/>
      <path id="Path_19313" data-name="Path 19313" d="M169.113,263.259a.462.462,0,0,1-.151-.026,1.184,1.184,0,0,1-.655-.884c-.843-2.937,1.138-14.7,8.807-24.163.582-.718,5.883-7.059,12.613-8.5,3.143-.675,4.841.1,5.426.47a5.324,5.324,0,0,1,2.422,3.839c.218,2.671-2.006,4.2-5.372,6.519a53.811,53.811,0,0,0-10.4,8.8c-.223.249-.335.379-.929,1.067-.82.951-2.557,2.965-6.763,7.814-3.528,4.067-4.446,5.071-5,5.071m22.959-33.244a10.584,10.584,0,0,0-2.22.254c-6.529,1.4-11.7,7.594-12.273,8.3-7.54,9.3-9.513,20.773-8.7,23.62a.842.842,0,0,0,.243.465c.477-.177,2.361-2.349,4.534-4.854,4.205-4.848,5.941-6.861,6.762-7.812.6-.694.712-.825.937-1.076a55.082,55.082,0,0,1,10.5-8.89c3.308-2.277,5.3-3.652,5.114-5.977a4.7,4.7,0,0,0-2.143-3.38,5.181,5.181,0,0,0-2.762-.646" transform="translate(-145.247 -198.196)"/>
      <path id="Path_19314" data-name="Path 19314" d="M190.184,283.645a.3.3,0,0,1-.283-.4,35.889,35.889,0,0,1,15.125-19.079,35.255,35.255,0,0,1,7.143-3.276.3.3,0,1,1,.188.569,34.649,34.649,0,0,0-7.021,3.22,35.3,35.3,0,0,0-14.87,18.765.3.3,0,0,1-.283.2" transform="translate(-164.043 -225.373)"/>
      <path id="Path_19315" data-name="Path 19315" d="M310.759,259.9a.308.308,0,0,1-.05,0,.3.3,0,0,1-.246-.345c.225-1.338.465-2.854.468-3.027a.3.3,0,0,1,.6,0c0,.276-.4,2.653-.477,3.126a.3.3,0,0,1-.3.25" transform="translate(-268.21 -221.355)"/>
      <path id="Path_19316" data-name="Path 19316" d="M275.306,306.03H275.3l-4-.091a.3.3,0,0,1-.293-.306.3.3,0,0,1,.306-.293l4,.091a.3.3,0,0,1-.007.6" transform="translate(-234.127 -263.786)"/>
      <path id="Path_19317" data-name="Path 19317" d="M235.027,323.728a.3.3,0,0,1-.3-.3v-3.007a.3.3,0,1,1,.6,0v3.007a.3.3,0,0,1-.3.3" transform="translate(-202.783 -276.556)"/>
      <path id="Path_19318" data-name="Path 19318" d="M211.578,373.115a.3.3,0,0,1-.079-.589l2.482-.68a.3.3,0,1,1,.158.578l-2.482.68a.3.3,0,0,1-.079.011" transform="translate(-182.526 -321.233)"/>
      <path id="Path_19319" data-name="Path 19319" d="M122.684,429.561h16.849l3.081-19.878H119.6Z" transform="translate(-103.326 -353.93)" fill="#fff"/>
      <path id="Path_19320" data-name="Path 19320" d="M137.63,427.957H120.781a.3.3,0,0,1-.3-.254L117.4,407.826a.3.3,0,0,1,.3-.346h23.012a.3.3,0,0,1,.3.346L137.926,427.7a.3.3,0,0,1-.3.254m-16.592-.6h16.335l2.988-19.279H118.05Z" transform="translate(-101.423 -352.027)"/>
    </g>
  </g>
</svg>
