<svg id="Group_46732" data-name="Group 46732" xmlns="http://www.w3.org/2000/svg" width="7.875" height="9" viewBox="0 0 7.875 9">
  <path id="Path_19425" data-name="Path 19425" d="M5.625,3.04v.838a.533.533,0,0,0,.217.378A2.808,2.808,0,1,1,1.125,6.313a2.788,2.788,0,0,1,.908-2.056.516.516,0,0,0,.217-.369V3.04c0-.155-.115-.228-.25-.151a3.938,3.938,0,1,0,3.875,0C5.74,2.812,5.625,2.884,5.625,3.04Z" transform="translate(0 -1.25)" fill="#464a4e" fill-rule="evenodd"/>
  <path id="Path_19426" data-name="Path 19426" d="M6.563,3.938a.562.562,0,0,0,.563-.562V.563A.563.563,0,0,0,6,.563V3.375A.562.562,0,0,0,6.563,3.938Z" transform="translate(-2.625)" fill="#464a4e" fill-rule="evenodd"/>
</svg>
