<svg xmlns="http://www.w3.org/2000/svg" width="58.883" height="58.883" viewBox="0 0 58.883 58.883">
  <g id="Group_46708" data-name="Group 46708" transform="translate(-335 -293)">
    <g id="Group_46709" data-name="Group 46709" transform="translate(335 293)">
      <path id="Path_19330" data-name="Path 19330" d="M41.442,12A29.442,29.442,0,1,0,70.883,41.442,29.429,29.429,0,0,0,41.442,12Zm0,55.784A26.343,26.343,0,1,1,67.784,41.442,26.32,26.32,0,0,1,41.442,67.784ZM59.184,31.447a1.5,1.5,0,0,0-2.169,0L37.258,51.281l-8.29-8.29A1.534,1.534,0,1,0,26.8,45.161l9.375,9.375a1.5,1.5,0,0,0,2.169,0L59.184,33.616a1.5,1.5,0,0,0,0-2.169Z" transform="translate(-12 -12)" fill="#4e73ed"/>
    </g>
  </g>
</svg>
