<svg id="Group_46727" data-name="Group 46727" xmlns="http://www.w3.org/2000/svg" width="22" height="22" viewBox="0 0 22 22">
  <g id="Ellipse_23" data-name="Ellipse 23" fill="#67c17e" stroke="#7b7b7b" stroke-width="0.5">
    <circle cx="11" cy="11" r="11" stroke="none"/>
    <circle cx="11" cy="11" r="10.75" fill="none"/>
  </g>
  <path id="Path_19373" data-name="Path 19373" d="M5.63,10.435a.562.562,0,0,1-.775,0L.321,6.059a1.032,1.032,0,0,1,0-1.5L4.887.154a.563.563,0,0,1,.77-.005A.517.517,0,0,1,5.663.9L1.483,4.937a.516.516,0,0,0,0,.749l4.146,4a.516.516,0,0,1,0,.748" transform="translate(7.764 5.824)" fill="#fff" fill-rule="evenodd"/>
</svg>
