<svg width="30" height="30" viewBox="0 0 30 30" fill="none" xmlns="http://www.w3.org/2000/svg">
<path d="M15 17.496C11.832 17.496 9.25195 14.916 9.25195 11.748C9.25195 8.58 11.832 6 15 6C18.168 6 20.748 8.58 20.748 11.748C20.748 14.916 18.168 17.496 15 17.496ZM15 7.638C12.738 7.638 10.896 9.48 10.896 11.742C10.896 14.004 12.738 15.846 15 15.846C17.262 15.846 19.104 14.004 19.104 11.742C19.104 9.48 17.262 7.638 15 7.638Z" fill="#00A536"/>
<path d="M23.2139 24.0656H21.5699C21.5699 20.4416 18.6239 17.4956 14.9999 17.4956C11.3759 17.4956 8.42989 20.4416 8.42989 24.0656H6.78589C6.78589 19.5356 10.4699 15.8516 14.9999 15.8516C19.5299 15.8516 23.2139 19.5356 23.2139 24.0656Z" fill="#00A536"/>
</svg>
