<svg xmlns="http://www.w3.org/2000/svg" width="18.463" height="21.5" viewBox="0 0 18.463 21.5">
  <g id="Group_46725" data-name="Group 46725" transform="translate(-53.345 -346.5)">
    <rect id="Rectangle_9247" data-name="Rectangle 9247" width="5.47" height="3.381" rx="1.69" transform="translate(66.337 357.105)" fill="#2dac4d"/>
    <rect id="Rectangle_9248" data-name="Rectangle 9248" width="5.47" height="1.889" transform="translate(66.337 358.597)" fill="#2dac4d"/>
    <rect id="Rectangle_9249" data-name="Rectangle 9249" width="2.652" height="2.652" rx="1.326" transform="translate(67.746 353.86)" fill="#2dac4d"/>
    <rect id="Rectangle_9250" data-name="Rectangle 9250" width="5.47" height="3.381" rx="1.69" transform="translate(66.337 349.746)" fill="#2dac4d"/>
    <rect id="Rectangle_9251" data-name="Rectangle 9251" width="5.47" height="1.889" transform="translate(66.337 351.238)" fill="#2dac4d"/>
    <rect id="Rectangle_9252" data-name="Rectangle 9252" width="2.652" height="2.652" rx="1.326" transform="translate(67.746 346.5)" fill="#2dac4d"/>
    <rect id="Rectangle_9253" data-name="Rectangle 9253" width="5.47" height="3.381" rx="1.69" transform="translate(66.337 364.619)" fill="#2dac4d"/>
    <rect id="Rectangle_9254" data-name="Rectangle 9254" width="5.47" height="1.889" transform="translate(66.337 366.111)" fill="#2dac4d"/>
    <rect id="Rectangle_9255" data-name="Rectangle 9255" width="2.652" height="2.652" rx="1.326" transform="translate(67.746 361.374)" fill="#2dac4d"/>
    <path id="Path_19349" data-name="Path 19349" d="M-556.508,1287.419a1.489,1.489,0,0,0-1.056.436,1.49,1.49,0,0,0-.436,1.056v1.889h5.47v-1.889a1.49,1.49,0,0,0-.436-1.056,1.489,1.489,0,0,0-1.056-.436h-.038l-.972.972a.328.328,0,0,1-.232.1.328.328,0,0,1-.232-.1l-.972-.973Z" transform="translate(611.345 -928.783)" fill="#2dac4d"/>
    <rect id="Rectangle_9256" data-name="Rectangle 9256" width="2.735" height="2.735" rx="1.368" transform="translate(54.712 355.924)" fill="#2dac4d"/>
    <path id="Path_19350" data-name="Path 19350" d="M-542.581,1290.042h-2.052a1.365,1.365,0,0,1-1.368-1.369v-10.952a1.365,1.365,0,0,1,1.368-1.369h2.052" transform="translate(607.55 -925.284)" fill="none"/>
    <rect id="Rectangle_9257" data-name="Rectangle 9257" width="1.368" height="5.47" transform="translate(59.499 358.599) rotate(-90)" fill="#2dac4d"/>
  </g>
</svg>
