<svg width="25" height="25" viewBox="0 0 25 25" fill="none" xmlns="http://www.w3.org/2000/svg">
<path d="M20.25 13.542C20.0209 13.542 19.7813 13.4691 19.5521 13.417C19.088 13.3147 18.632 13.179 18.1875 13.0107C17.7043 12.8349 17.1731 12.8441 16.6962 13.0364C16.2193 13.2287 15.8303 13.5906 15.6042 14.0524L15.375 14.5212C14.3605 13.9568 13.4282 13.2558 12.6042 12.4378C11.7863 11.6139 11.0853 10.6816 10.5209 9.667L10.9584 9.37533C11.4202 9.1492 11.7821 8.76026 11.9744 8.28334C12.1667 7.80643 12.1758 7.27524 12 6.792C11.8347 6.3466 11.6989 5.89075 11.5938 5.42741C11.5417 5.19825 11.5 4.95866 11.4688 4.71908C11.3423 3.98535 10.958 3.3209 10.3851 2.84537C9.81215 2.36985 9.08827 2.11451 8.34379 2.12533H5.21879C4.76987 2.12112 4.3253 2.21368 3.91537 2.39672C3.50543 2.57976 3.13974 2.84897 2.8432 3.18604C2.54666 3.52311 2.32623 3.92012 2.19691 4.35003C2.06759 4.77995 2.03242 5.23268 2.09379 5.67741C2.64873 10.0414 4.64174 14.096 7.75802 17.201C10.8743 20.306 14.9362 22.2842 19.3021 22.8232H19.698C20.4661 22.8244 21.2078 22.5425 21.7813 22.0316C22.1108 21.7368 22.3741 21.3755 22.5537 20.9715C22.7332 20.5675 22.825 20.13 22.823 19.6878V16.5628C22.8102 15.8393 22.5467 15.1426 22.0775 14.5917C21.6082 14.0407 20.9624 13.6697 20.25 13.542ZM20.7709 19.792C20.7707 19.9399 20.739 20.0861 20.6779 20.2208C20.6169 20.3555 20.5278 20.4756 20.4167 20.5732C20.3003 20.6737 20.1642 20.7488 20.0171 20.7937C19.87 20.8385 19.7152 20.8521 19.5625 20.8337C15.6614 20.3335 12.0378 18.5488 9.26329 15.7611C6.48879 12.9733 4.7213 9.34131 4.23963 5.43783C4.22305 5.28525 4.23758 5.13088 4.28234 4.98407C4.3271 4.83726 4.40116 4.70105 4.50004 4.58366C4.59766 4.47255 4.71782 4.3835 4.85252 4.32243C4.98723 4.26137 5.13339 4.22968 5.28129 4.2295H8.40629C8.64853 4.22411 8.88507 4.30333 9.07519 4.45353C9.26532 4.60373 9.39714 4.81551 9.44796 5.05241C9.48963 5.33714 9.54171 5.61839 9.60421 5.89616C9.72454 6.44527 9.88469 6.98489 10.0834 7.51075L8.62504 8.18783C8.50035 8.24504 8.38819 8.32632 8.295 8.42699C8.20181 8.52767 8.12942 8.64576 8.08199 8.77449C8.03457 8.90322 8.01304 9.04005 8.01864 9.17712C8.02424 9.3142 8.05686 9.44882 8.11463 9.57325C9.61379 12.7845 12.1951 15.3657 15.4063 16.8649C15.6599 16.9691 15.9444 16.9691 16.198 16.8649C16.3279 16.8184 16.4473 16.7466 16.5492 16.6537C16.6511 16.5607 16.7335 16.4484 16.7917 16.3232L17.4375 14.8649C17.9761 15.0575 18.5257 15.2175 19.0834 15.3441C19.3612 15.4066 19.6424 15.4587 19.9271 15.5003C20.164 15.5512 20.3758 15.683 20.526 15.8731C20.6762 16.0632 20.7554 16.2998 20.75 16.542L20.7709 19.792Z" fill="black"/>
</svg>
