<svg width="25" height="25" viewBox="0 0 25 25" fill="none" xmlns="http://www.w3.org/2000/svg">
<mask id="path-1-outside-1_333_2511" maskUnits="userSpaceOnUse" x="2.125" y="2.125" width="20" height="20" fill="black">
<rect fill="white" x="2.125" y="2.125" width="20" height="20"/>
<path fill-rule="evenodd" clip-rule="evenodd" d="M6.75234 3.125H8.09141C8.56109 3.125 8.93992 3.12499 9.24828 3.14603C9.56531 3.16766 9.8457 3.21327 10.1112 3.32323C10.7493 3.58754 11.2562 4.09449 11.5205 4.73258C11.6305 4.99805 11.6761 5.27844 11.6977 5.59547C11.7188 5.90383 11.7188 6.28266 11.7188 6.75234V8.09141C11.7188 8.56109 11.7188 8.93996 11.6977 9.24828C11.6761 9.56531 11.6305 9.8457 11.5205 10.1112C11.2562 10.7493 10.7493 11.2562 10.1112 11.5205C9.8457 11.6305 9.56531 11.6761 9.24828 11.6977C8.93992 11.7188 8.56109 11.7188 8.09141 11.7188H6.75234C6.28266 11.7188 5.90383 11.7188 5.59547 11.6977C5.27844 11.6761 4.99805 11.6305 4.73258 11.5205C4.09449 11.2562 3.58754 10.7493 3.32323 10.1112C3.21327 9.8457 3.16766 9.56531 3.14603 9.24828C3.12499 8.93992 3.125 8.56109 3.125 8.09141V6.75234C3.125 6.28266 3.12499 5.90383 3.14603 5.59547C3.16766 5.27844 3.21327 4.99805 3.32323 4.73258C3.58754 4.09449 4.09449 3.58754 4.73258 3.32323C4.99805 3.21327 5.27844 3.16766 5.59547 3.14603C5.90383 3.12499 6.28266 3.125 6.75234 3.125ZM5.66637 4.18527C5.40234 4.20328 5.24859 4.23699 5.13121 4.28559C4.74836 4.44418 4.44418 4.74836 4.28559 5.13121C4.23699 5.24859 4.20328 5.40234 4.18527 5.66637C4.16695 5.93508 4.16668 6.27836 4.16668 6.77082V8.07293C4.16668 8.56539 4.16695 8.90867 4.18527 9.17738C4.20328 9.44141 4.23699 9.59516 4.28559 9.71254C4.44418 10.0954 4.74836 10.3996 5.13121 10.5582C5.24859 10.6068 5.40234 10.6405 5.66637 10.6585C5.93508 10.6768 6.27836 10.6771 6.77082 10.6771H8.07293C8.56539 10.6771 8.90867 10.6768 9.17738 10.6585C9.44141 10.6405 9.59516 10.6068 9.71254 10.5582C10.0954 10.3996 10.3996 10.0954 10.5582 9.71254C10.6068 9.59516 10.6405 9.44141 10.6585 9.17738C10.6768 8.90867 10.6771 8.56539 10.6771 8.07293V6.77082C10.6771 6.27836 10.6768 5.93508 10.6585 5.66637C10.6405 5.40234 10.6068 5.24859 10.5582 5.13121C10.3996 4.74836 10.0954 4.44418 9.71254 4.28559C9.59516 4.23699 9.44141 4.20328 9.17738 4.18527C8.90867 4.16695 8.56539 4.16668 8.07293 4.16668H6.77082C6.27836 4.16668 5.93508 4.16695 5.66637 4.18527ZM6.75234 13.2812H8.09141C8.56109 13.2812 8.93992 13.2812 9.24828 13.3023C9.56531 13.3239 9.8457 13.3695 10.1112 13.4795C10.7493 13.7438 11.2562 14.2507 11.5205 14.8888C11.6305 15.1543 11.6761 15.4347 11.6977 15.7517C11.7188 16.0601 11.7188 16.4389 11.7188 16.9086V18.2477C11.7188 18.7173 11.7188 19.0962 11.6977 19.4045C11.6761 19.7216 11.6305 20.002 11.5205 20.2674C11.2562 20.9055 10.7493 21.4125 10.1112 21.6768C9.8457 21.7867 9.56531 21.8323 9.24828 21.854C8.93992 21.875 8.56109 21.875 8.09141 21.875H6.75234C6.28266 21.875 5.90383 21.875 5.59547 21.854C5.27844 21.8323 4.99805 21.7867 4.73258 21.6768C4.09449 21.4125 3.58754 20.9055 3.32323 20.2674C3.21327 20.002 3.16766 19.7216 3.14603 19.4045C3.12499 19.0962 3.125 18.7173 3.125 18.2477V16.9086C3.125 16.4389 3.12499 16.0601 3.14603 15.7517C3.16766 15.4347 3.21327 15.1543 3.32323 14.8888C3.58754 14.2507 4.09449 13.7438 4.73258 13.4795C4.99805 13.3695 5.27844 13.3239 5.59547 13.3023C5.90383 13.2812 6.28266 13.2812 6.75234 13.2812ZM5.66637 14.3415C5.40234 14.3595 5.24859 14.3932 5.13121 14.4418C4.74836 14.6004 4.44418 14.9046 4.28559 15.2875C4.23699 15.4048 4.20328 15.5586 4.18527 15.8226C4.16695 16.0913 4.16668 16.4346 4.16668 16.9271V18.2292C4.16668 18.7216 4.16695 19.0649 4.18527 19.3336C4.20328 19.5977 4.23699 19.7514 4.28559 19.8688C4.44418 20.2516 4.74836 20.5558 5.13121 20.7144C5.24859 20.763 5.40234 20.7967 5.66637 20.8147C5.93508 20.833 6.27836 20.8333 6.77082 20.8333H8.07293C8.56539 20.8333 8.90867 20.833 9.17738 20.8147C9.44141 20.7967 9.59516 20.763 9.71254 20.7144C10.0954 20.5558 10.3996 20.2516 10.5582 19.8688C10.6068 19.7514 10.6405 19.5977 10.6585 19.3336C10.6768 19.0649 10.6771 18.7216 10.6771 18.2292V16.9271C10.6771 16.4346 10.6768 16.0913 10.6585 15.8226C10.6405 15.5586 10.6068 15.4048 10.5582 15.2875C10.3996 14.9046 10.0954 14.6004 9.71254 14.4418C9.59516 14.3932 9.44141 14.3595 9.17738 14.3415C8.90867 14.3232 8.56539 14.3229 8.07293 14.3229H6.77082C6.27836 14.3229 5.93508 14.3232 5.66637 14.3415ZM16.9086 3.125H18.2477C18.7173 3.125 19.0962 3.12499 19.4045 3.14603C19.7216 3.16766 20.002 3.21327 20.2674 3.32323C20.9055 3.58754 21.4125 4.09449 21.6768 4.73258C21.7867 4.99805 21.8323 5.27844 21.854 5.59547C21.875 5.90383 21.875 6.28266 21.875 6.75234V8.09141C21.875 8.56109 21.875 8.93996 21.854 9.24828C21.8323 9.56531 21.7867 9.8457 21.6768 10.1112C21.4125 10.7493 20.9055 11.2562 20.2674 11.5205C20.002 11.6305 19.7216 11.6761 19.4045 11.6977C19.0962 11.7188 18.7173 11.7188 18.2477 11.7188H16.9086C16.4389 11.7188 16.0601 11.7188 15.7517 11.6977C15.4347 11.6761 15.1543 11.6305 14.8888 11.5205C14.2507 11.2562 13.7438 10.7493 13.4795 10.1112C13.3695 9.8457 13.3239 9.56531 13.3023 9.24828C13.2812 8.93992 13.2812 8.56109 13.2812 8.09141V6.75234C13.2812 6.28266 13.2812 5.90383 13.3023 5.59547C13.3239 5.27844 13.3695 4.99805 13.4795 4.73258C13.7438 4.09449 14.2507 3.58754 14.8888 3.32323C15.1543 3.21327 15.4347 3.16766 15.7517 3.14603C16.0601 3.12499 16.4389 3.125 16.9086 3.125ZM15.8226 4.18527C15.5586 4.20328 15.4048 4.23699 15.2875 4.28559C14.9046 4.44418 14.6004 4.74836 14.4418 5.13121C14.3932 5.24859 14.3595 5.40234 14.3415 5.66637C14.3232 5.93508 14.3229 6.27836 14.3229 6.77082V8.07293C14.3229 8.56539 14.3232 8.90867 14.3415 9.17738C14.3595 9.44141 14.3932 9.59516 14.4418 9.71254C14.6004 10.0954 14.9046 10.3996 15.2875 10.5582C15.4048 10.6068 15.5586 10.6405 15.8226 10.6585C16.0913 10.6768 16.4346 10.6771 16.9271 10.6771H18.2292C18.7216 10.6771 19.0649 10.6768 19.3336 10.6585C19.5977 10.6405 19.7514 10.6068 19.8688 10.5582C20.2516 10.3996 20.5558 10.0954 20.7144 9.71254C20.763 9.59516 20.7967 9.44141 20.8147 9.17738C20.833 8.90867 20.8333 8.56539 20.8333 8.07293V6.77082C20.8333 6.27836 20.833 5.93508 20.8147 5.66637C20.7967 5.40234 20.763 5.24859 20.7144 5.13121C20.5558 4.74836 20.2516 4.44418 19.8688 4.28559C19.7514 4.23699 19.5977 4.20328 19.3336 4.18527C19.0649 4.16695 18.7216 4.16668 18.2292 4.16668H16.9271C16.4346 4.16668 16.0913 4.16695 15.8226 4.18527ZM16.9086 13.2812H18.2477C18.7173 13.2812 19.0962 13.2812 19.4045 13.3023C19.7216 13.3239 20.002 13.3695 20.2674 13.4795C20.9055 13.7438 21.4125 14.2507 21.6768 14.8888C21.7867 15.1543 21.8323 15.4347 21.854 15.7517C21.875 16.0601 21.875 16.4389 21.875 16.9086V18.2477C21.875 18.7173 21.875 19.0962 21.854 19.4045C21.8323 19.7216 21.7867 20.002 21.6768 20.2674C21.4125 20.9055 20.9055 21.4125 20.2674 21.6768C20.002 21.7867 19.7216 21.8323 19.4045 21.854C19.0962 21.875 18.7173 21.875 18.2477 21.875H16.9086C16.4389 21.875 16.0601 21.875 15.7517 21.854C15.4347 21.8323 15.1543 21.7867 14.8888 21.6768C14.2507 21.4125 13.7438 20.9055 13.4795 20.2674C13.3695 20.002 13.3239 19.7216 13.3023 19.4045C13.2812 19.0962 13.2812 18.7173 13.2812 18.2477V16.9086C13.2812 16.4389 13.2812 16.0601 13.3023 15.7517C13.3239 15.4347 13.3695 15.1543 13.4795 14.8888C13.7438 14.2507 14.2507 13.7438 14.8888 13.4795C15.1543 13.3695 15.4347 13.3239 15.7517 13.3023C16.0601 13.2812 16.4389 13.2812 16.9086 13.2812ZM15.8226 14.3415C15.5586 14.3595 15.4048 14.3932 15.2875 14.4418C14.9046 14.6004 14.6004 14.9046 14.4418 15.2875C14.3932 15.4048 14.3595 15.5586 14.3415 15.8226C14.3232 16.0913 14.3229 16.4346 14.3229 16.9271V18.2292C14.3229 18.7216 14.3232 19.0649 14.3415 19.3336C14.3595 19.5977 14.3932 19.7514 14.4418 19.8688C14.6004 20.2516 14.9046 20.5558 15.2875 20.7144C15.4048 20.763 15.5586 20.7967 15.8226 20.8147C16.0913 20.833 16.4346 20.8333 16.9271 20.8333H18.2292C18.7216 20.8333 19.0649 20.833 19.3336 20.8147C19.5977 20.7967 19.7514 20.763 19.8688 20.7144C20.2516 20.5558 20.5558 20.2516 20.7144 19.8688C20.763 19.7514 20.7967 19.5977 20.8147 19.3336C20.833 19.0649 20.8333 18.7216 20.8333 18.2292V16.9271C20.8333 16.4346 20.833 16.0913 20.8147 15.8226C20.7967 15.5586 20.763 15.4048 20.7144 15.2875C20.5558 14.9046 20.2516 14.6004 19.8688 14.4418C19.7514 14.3932 19.5977 14.3595 19.3336 14.3415C19.0649 14.3232 18.7216 14.3229 18.2292 14.3229H16.9271C16.4346 14.3229 16.0913 14.3232 15.8226 14.3415Z"/>
</mask>
<path fill-rule="evenodd" clip-rule="evenodd" d="M6.75234 3.125H8.09141C8.56109 3.125 8.93992 3.12499 9.24828 3.14603C9.56531 3.16766 9.8457 3.21327 10.1112 3.32323C10.7493 3.58754 11.2562 4.09449 11.5205 4.73258C11.6305 4.99805 11.6761 5.27844 11.6977 5.59547C11.7188 5.90383 11.7188 6.28266 11.7188 6.75234V8.09141C11.7188 8.56109 11.7188 8.93996 11.6977 9.24828C11.6761 9.56531 11.6305 9.8457 11.5205 10.1112C11.2562 10.7493 10.7493 11.2562 10.1112 11.5205C9.8457 11.6305 9.56531 11.6761 9.24828 11.6977C8.93992 11.7188 8.56109 11.7188 8.09141 11.7188H6.75234C6.28266 11.7188 5.90383 11.7188 5.59547 11.6977C5.27844 11.6761 4.99805 11.6305 4.73258 11.5205C4.09449 11.2562 3.58754 10.7493 3.32323 10.1112C3.21327 9.8457 3.16766 9.56531 3.14603 9.24828C3.12499 8.93992 3.125 8.56109 3.125 8.09141V6.75234C3.125 6.28266 3.12499 5.90383 3.14603 5.59547C3.16766 5.27844 3.21327 4.99805 3.32323 4.73258C3.58754 4.09449 4.09449 3.58754 4.73258 3.32323C4.99805 3.21327 5.27844 3.16766 5.59547 3.14603C5.90383 3.12499 6.28266 3.125 6.75234 3.125ZM5.66637 4.18527C5.40234 4.20328 5.24859 4.23699 5.13121 4.28559C4.74836 4.44418 4.44418 4.74836 4.28559 5.13121C4.23699 5.24859 4.20328 5.40234 4.18527 5.66637C4.16695 5.93508 4.16668 6.27836 4.16668 6.77082V8.07293C4.16668 8.56539 4.16695 8.90867 4.18527 9.17738C4.20328 9.44141 4.23699 9.59516 4.28559 9.71254C4.44418 10.0954 4.74836 10.3996 5.13121 10.5582C5.24859 10.6068 5.40234 10.6405 5.66637 10.6585C5.93508 10.6768 6.27836 10.6771 6.77082 10.6771H8.07293C8.56539 10.6771 8.90867 10.6768 9.17738 10.6585C9.44141 10.6405 9.59516 10.6068 9.71254 10.5582C10.0954 10.3996 10.3996 10.0954 10.5582 9.71254C10.6068 9.59516 10.6405 9.44141 10.6585 9.17738C10.6768 8.90867 10.6771 8.56539 10.6771 8.07293V6.77082C10.6771 6.27836 10.6768 5.93508 10.6585 5.66637C10.6405 5.40234 10.6068 5.24859 10.5582 5.13121C10.3996 4.74836 10.0954 4.44418 9.71254 4.28559C9.59516 4.23699 9.44141 4.20328 9.17738 4.18527C8.90867 4.16695 8.56539 4.16668 8.07293 4.16668H6.77082C6.27836 4.16668 5.93508 4.16695 5.66637 4.18527ZM6.75234 13.2812H8.09141C8.56109 13.2812 8.93992 13.2812 9.24828 13.3023C9.56531 13.3239 9.8457 13.3695 10.1112 13.4795C10.7493 13.7438 11.2562 14.2507 11.5205 14.8888C11.6305 15.1543 11.6761 15.4347 11.6977 15.7517C11.7188 16.0601 11.7188 16.4389 11.7188 16.9086V18.2477C11.7188 18.7173 11.7188 19.0962 11.6977 19.4045C11.6761 19.7216 11.6305 20.002 11.5205 20.2674C11.2562 20.9055 10.7493 21.4125 10.1112 21.6768C9.8457 21.7867 9.56531 21.8323 9.24828 21.854C8.93992 21.875 8.56109 21.875 8.09141 21.875H6.75234C6.28266 21.875 5.90383 21.875 5.59547 21.854C5.27844 21.8323 4.99805 21.7867 4.73258 21.6768C4.09449 21.4125 3.58754 20.9055 3.32323 20.2674C3.21327 20.002 3.16766 19.7216 3.14603 19.4045C3.12499 19.0962 3.125 18.7173 3.125 18.2477V16.9086C3.125 16.4389 3.12499 16.0601 3.14603 15.7517C3.16766 15.4347 3.21327 15.1543 3.32323 14.8888C3.58754 14.2507 4.09449 13.7438 4.73258 13.4795C4.99805 13.3695 5.27844 13.3239 5.59547 13.3023C5.90383 13.2812 6.28266 13.2812 6.75234 13.2812ZM5.66637 14.3415C5.40234 14.3595 5.24859 14.3932 5.13121 14.4418C4.74836 14.6004 4.44418 14.9046 4.28559 15.2875C4.23699 15.4048 4.20328 15.5586 4.18527 15.8226C4.16695 16.0913 4.16668 16.4346 4.16668 16.9271V18.2292C4.16668 18.7216 4.16695 19.0649 4.18527 19.3336C4.20328 19.5977 4.23699 19.7514 4.28559 19.8688C4.44418 20.2516 4.74836 20.5558 5.13121 20.7144C5.24859 20.763 5.40234 20.7967 5.66637 20.8147C5.93508 20.833 6.27836 20.8333 6.77082 20.8333H8.07293C8.56539 20.8333 8.90867 20.833 9.17738 20.8147C9.44141 20.7967 9.59516 20.763 9.71254 20.7144C10.0954 20.5558 10.3996 20.2516 10.5582 19.8688C10.6068 19.7514 10.6405 19.5977 10.6585 19.3336C10.6768 19.0649 10.6771 18.7216 10.6771 18.2292V16.9271C10.6771 16.4346 10.6768 16.0913 10.6585 15.8226C10.6405 15.5586 10.6068 15.4048 10.5582 15.2875C10.3996 14.9046 10.0954 14.6004 9.71254 14.4418C9.59516 14.3932 9.44141 14.3595 9.17738 14.3415C8.90867 14.3232 8.56539 14.3229 8.07293 14.3229H6.77082C6.27836 14.3229 5.93508 14.3232 5.66637 14.3415ZM16.9086 3.125H18.2477C18.7173 3.125 19.0962 3.12499 19.4045 3.14603C19.7216 3.16766 20.002 3.21327 20.2674 3.32323C20.9055 3.58754 21.4125 4.09449 21.6768 4.73258C21.7867 4.99805 21.8323 5.27844 21.854 5.59547C21.875 5.90383 21.875 6.28266 21.875 6.75234V8.09141C21.875 8.56109 21.875 8.93996 21.854 9.24828C21.8323 9.56531 21.7867 9.8457 21.6768 10.1112C21.4125 10.7493 20.9055 11.2562 20.2674 11.5205C20.002 11.6305 19.7216 11.6761 19.4045 11.6977C19.0962 11.7188 18.7173 11.7188 18.2477 11.7188H16.9086C16.4389 11.7188 16.0601 11.7188 15.7517 11.6977C15.4347 11.6761 15.1543 11.6305 14.8888 11.5205C14.2507 11.2562 13.7438 10.7493 13.4795 10.1112C13.3695 9.8457 13.3239 9.56531 13.3023 9.24828C13.2812 8.93992 13.2812 8.56109 13.2812 8.09141V6.75234C13.2812 6.28266 13.2812 5.90383 13.3023 5.59547C13.3239 5.27844 13.3695 4.99805 13.4795 4.73258C13.7438 4.09449 14.2507 3.58754 14.8888 3.32323C15.1543 3.21327 15.4347 3.16766 15.7517 3.14603C16.0601 3.12499 16.4389 3.125 16.9086 3.125ZM15.8226 4.18527C15.5586 4.20328 15.4048 4.23699 15.2875 4.28559C14.9046 4.44418 14.6004 4.74836 14.4418 5.13121C14.3932 5.24859 14.3595 5.40234 14.3415 5.66637C14.3232 5.93508 14.3229 6.27836 14.3229 6.77082V8.07293C14.3229 8.56539 14.3232 8.90867 14.3415 9.17738C14.3595 9.44141 14.3932 9.59516 14.4418 9.71254C14.6004 10.0954 14.9046 10.3996 15.2875 10.5582C15.4048 10.6068 15.5586 10.6405 15.8226 10.6585C16.0913 10.6768 16.4346 10.6771 16.9271 10.6771H18.2292C18.7216 10.6771 19.0649 10.6768 19.3336 10.6585C19.5977 10.6405 19.7514 10.6068 19.8688 10.5582C20.2516 10.3996 20.5558 10.0954 20.7144 9.71254C20.763 9.59516 20.7967 9.44141 20.8147 9.17738C20.833 8.90867 20.8333 8.56539 20.8333 8.07293V6.77082C20.8333 6.27836 20.833 5.93508 20.8147 5.66637C20.7967 5.40234 20.763 5.24859 20.7144 5.13121C20.5558 4.74836 20.2516 4.44418 19.8688 4.28559C19.7514 4.23699 19.5977 4.20328 19.3336 4.18527C19.0649 4.16695 18.7216 4.16668 18.2292 4.16668H16.9271C16.4346 4.16668 16.0913 4.16695 15.8226 4.18527ZM16.9086 13.2812H18.2477C18.7173 13.2812 19.0962 13.2812 19.4045 13.3023C19.7216 13.3239 20.002 13.3695 20.2674 13.4795C20.9055 13.7438 21.4125 14.2507 21.6768 14.8888C21.7867 15.1543 21.8323 15.4347 21.854 15.7517C21.875 16.0601 21.875 16.4389 21.875 16.9086V18.2477C21.875 18.7173 21.875 19.0962 21.854 19.4045C21.8323 19.7216 21.7867 20.002 21.6768 20.2674C21.4125 20.9055 20.9055 21.4125 20.2674 21.6768C20.002 21.7867 19.7216 21.8323 19.4045 21.854C19.0962 21.875 18.7173 21.875 18.2477 21.875H16.9086C16.4389 21.875 16.0601 21.875 15.7517 21.854C15.4347 21.8323 15.1543 21.7867 14.8888 21.6768C14.2507 21.4125 13.7438 20.9055 13.4795 20.2674C13.3695 20.002 13.3239 19.7216 13.3023 19.4045C13.2812 19.0962 13.2812 18.7173 13.2812 18.2477V16.9086C13.2812 16.4389 13.2812 16.0601 13.3023 15.7517C13.3239 15.4347 13.3695 15.1543 13.4795 14.8888C13.7438 14.2507 14.2507 13.7438 14.8888 13.4795C15.1543 13.3695 15.4347 13.3239 15.7517 13.3023C16.0601 13.2812 16.4389 13.2812 16.9086 13.2812ZM15.8226 14.3415C15.5586 14.3595 15.4048 14.3932 15.2875 14.4418C14.9046 14.6004 14.6004 14.9046 14.4418 15.2875C14.3932 15.4048 14.3595 15.5586 14.3415 15.8226C14.3232 16.0913 14.3229 16.4346 14.3229 16.9271V18.2292C14.3229 18.7216 14.3232 19.0649 14.3415 19.3336C14.3595 19.5977 14.3932 19.7514 14.4418 19.8688C14.6004 20.2516 14.9046 20.5558 15.2875 20.7144C15.4048 20.763 15.5586 20.7967 15.8226 20.8147C16.0913 20.833 16.4346 20.8333 16.9271 20.8333H18.2292C18.7216 20.8333 19.0649 20.833 19.3336 20.8147C19.5977 20.7967 19.7514 20.763 19.8688 20.7144C20.2516 20.5558 20.5558 20.2516 20.7144 19.8688C20.763 19.7514 20.7967 19.5977 20.8147 19.3336C20.833 19.0649 20.8333 18.7216 20.8333 18.2292V16.9271C20.8333 16.4346 20.833 16.0913 20.8147 15.8226C20.7967 15.5586 20.763 15.4048 20.7144 15.2875C20.5558 14.9046 20.2516 14.6004 19.8688 14.4418C19.7514 14.3932 19.5977 14.3595 19.3336 14.3415C19.0649 14.3232 18.7216 14.3229 18.2292 14.3229H16.9271C16.4346 14.3229 16.0913 14.3232 15.8226 14.3415Z" fill="black"/>
<path fill-rule="evenodd" clip-rule="evenodd" d="M6.75234 3.125H8.09141C8.56109 3.125 8.93992 3.12499 9.24828 3.14603C9.56531 3.16766 9.8457 3.21327 10.1112 3.32323C10.7493 3.58754 11.2562 4.09449 11.5205 4.73258C11.6305 4.99805 11.6761 5.27844 11.6977 5.59547C11.7188 5.90383 11.7188 6.28266 11.7188 6.75234V8.09141C11.7188 8.56109 11.7188 8.93996 11.6977 9.24828C11.6761 9.56531 11.6305 9.8457 11.5205 10.1112C11.2562 10.7493 10.7493 11.2562 10.1112 11.5205C9.8457 11.6305 9.56531 11.6761 9.24828 11.6977C8.93992 11.7188 8.56109 11.7188 8.09141 11.7188H6.75234C6.28266 11.7188 5.90383 11.7188 5.59547 11.6977C5.27844 11.6761 4.99805 11.6305 4.73258 11.5205C4.09449 11.2562 3.58754 10.7493 3.32323 10.1112C3.21327 9.8457 3.16766 9.56531 3.14603 9.24828C3.12499 8.93992 3.125 8.56109 3.125 8.09141V6.75234C3.125 6.28266 3.12499 5.90383 3.14603 5.59547C3.16766 5.27844 3.21327 4.99805 3.32323 4.73258C3.58754 4.09449 4.09449 3.58754 4.73258 3.32323C4.99805 3.21327 5.27844 3.16766 5.59547 3.14603C5.90383 3.12499 6.28266 3.125 6.75234 3.125ZM5.66637 4.18527C5.40234 4.20328 5.24859 4.23699 5.13121 4.28559C4.74836 4.44418 4.44418 4.74836 4.28559 5.13121C4.23699 5.24859 4.20328 5.40234 4.18527 5.66637C4.16695 5.93508 4.16668 6.27836 4.16668 6.77082V8.07293C4.16668 8.56539 4.16695 8.90867 4.18527 9.17738C4.20328 9.44141 4.23699 9.59516 4.28559 9.71254C4.44418 10.0954 4.74836 10.3996 5.13121 10.5582C5.24859 10.6068 5.40234 10.6405 5.66637 10.6585C5.93508 10.6768 6.27836 10.6771 6.77082 10.6771H8.07293C8.56539 10.6771 8.90867 10.6768 9.17738 10.6585C9.44141 10.6405 9.59516 10.6068 9.71254 10.5582C10.0954 10.3996 10.3996 10.0954 10.5582 9.71254C10.6068 9.59516 10.6405 9.44141 10.6585 9.17738C10.6768 8.90867 10.6771 8.56539 10.6771 8.07293V6.77082C10.6771 6.27836 10.6768 5.93508 10.6585 5.66637C10.6405 5.40234 10.6068 5.24859 10.5582 5.13121C10.3996 4.74836 10.0954 4.44418 9.71254 4.28559C9.59516 4.23699 9.44141 4.20328 9.17738 4.18527C8.90867 4.16695 8.56539 4.16668 8.07293 4.16668H6.77082C6.27836 4.16668 5.93508 4.16695 5.66637 4.18527ZM6.75234 13.2812H8.09141C8.56109 13.2812 8.93992 13.2812 9.24828 13.3023C9.56531 13.3239 9.8457 13.3695 10.1112 13.4795C10.7493 13.7438 11.2562 14.2507 11.5205 14.8888C11.6305 15.1543 11.6761 15.4347 11.6977 15.7517C11.7188 16.0601 11.7188 16.4389 11.7188 16.9086V18.2477C11.7188 18.7173 11.7188 19.0962 11.6977 19.4045C11.6761 19.7216 11.6305 20.002 11.5205 20.2674C11.2562 20.9055 10.7493 21.4125 10.1112 21.6768C9.8457 21.7867 9.56531 21.8323 9.24828 21.854C8.93992 21.875 8.56109 21.875 8.09141 21.875H6.75234C6.28266 21.875 5.90383 21.875 5.59547 21.854C5.27844 21.8323 4.99805 21.7867 4.73258 21.6768C4.09449 21.4125 3.58754 20.9055 3.32323 20.2674C3.21327 20.002 3.16766 19.7216 3.14603 19.4045C3.12499 19.0962 3.125 18.7173 3.125 18.2477V16.9086C3.125 16.4389 3.12499 16.0601 3.14603 15.7517C3.16766 15.4347 3.21327 15.1543 3.32323 14.8888C3.58754 14.2507 4.09449 13.7438 4.73258 13.4795C4.99805 13.3695 5.27844 13.3239 5.59547 13.3023C5.90383 13.2812 6.28266 13.2812 6.75234 13.2812ZM5.66637 14.3415C5.40234 14.3595 5.24859 14.3932 5.13121 14.4418C4.74836 14.6004 4.44418 14.9046 4.28559 15.2875C4.23699 15.4048 4.20328 15.5586 4.18527 15.8226C4.16695 16.0913 4.16668 16.4346 4.16668 16.9271V18.2292C4.16668 18.7216 4.16695 19.0649 4.18527 19.3336C4.20328 19.5977 4.23699 19.7514 4.28559 19.8688C4.44418 20.2516 4.74836 20.5558 5.13121 20.7144C5.24859 20.763 5.40234 20.7967 5.66637 20.8147C5.93508 20.833 6.27836 20.8333 6.77082 20.8333H8.07293C8.56539 20.8333 8.90867 20.833 9.17738 20.8147C9.44141 20.7967 9.59516 20.763 9.71254 20.7144C10.0954 20.5558 10.3996 20.2516 10.5582 19.8688C10.6068 19.7514 10.6405 19.5977 10.6585 19.3336C10.6768 19.0649 10.6771 18.7216 10.6771 18.2292V16.9271C10.6771 16.4346 10.6768 16.0913 10.6585 15.8226C10.6405 15.5586 10.6068 15.4048 10.5582 15.2875C10.3996 14.9046 10.0954 14.6004 9.71254 14.4418C9.59516 14.3932 9.44141 14.3595 9.17738 14.3415C8.90867 14.3232 8.56539 14.3229 8.07293 14.3229H6.77082C6.27836 14.3229 5.93508 14.3232 5.66637 14.3415ZM16.9086 3.125H18.2477C18.7173 3.125 19.0962 3.12499 19.4045 3.14603C19.7216 3.16766 20.002 3.21327 20.2674 3.32323C20.9055 3.58754 21.4125 4.09449 21.6768 4.73258C21.7867 4.99805 21.8323 5.27844 21.854 5.59547C21.875 5.90383 21.875 6.28266 21.875 6.75234V8.09141C21.875 8.56109 21.875 8.93996 21.854 9.24828C21.8323 9.56531 21.7867 9.8457 21.6768 10.1112C21.4125 10.7493 20.9055 11.2562 20.2674 11.5205C20.002 11.6305 19.7216 11.6761 19.4045 11.6977C19.0962 11.7188 18.7173 11.7188 18.2477 11.7188H16.9086C16.4389 11.7188 16.0601 11.7188 15.7517 11.6977C15.4347 11.6761 15.1543 11.6305 14.8888 11.5205C14.2507 11.2562 13.7438 10.7493 13.4795 10.1112C13.3695 9.8457 13.3239 9.56531 13.3023 9.24828C13.2812 8.93992 13.2812 8.56109 13.2812 8.09141V6.75234C13.2812 6.28266 13.2812 5.90383 13.3023 5.59547C13.3239 5.27844 13.3695 4.99805 13.4795 4.73258C13.7438 4.09449 14.2507 3.58754 14.8888 3.32323C15.1543 3.21327 15.4347 3.16766 15.7517 3.14603C16.0601 3.12499 16.4389 3.125 16.9086 3.125ZM15.8226 4.18527C15.5586 4.20328 15.4048 4.23699 15.2875 4.28559C14.9046 4.44418 14.6004 4.74836 14.4418 5.13121C14.3932 5.24859 14.3595 5.40234 14.3415 5.66637C14.3232 5.93508 14.3229 6.27836 14.3229 6.77082V8.07293C14.3229 8.56539 14.3232 8.90867 14.3415 9.17738C14.3595 9.44141 14.3932 9.59516 14.4418 9.71254C14.6004 10.0954 14.9046 10.3996 15.2875 10.5582C15.4048 10.6068 15.5586 10.6405 15.8226 10.6585C16.0913 10.6768 16.4346 10.6771 16.9271 10.6771H18.2292C18.7216 10.6771 19.0649 10.6768 19.3336 10.6585C19.5977 10.6405 19.7514 10.6068 19.8688 10.5582C20.2516 10.3996 20.5558 10.0954 20.7144 9.71254C20.763 9.59516 20.7967 9.44141 20.8147 9.17738C20.833 8.90867 20.8333 8.56539 20.8333 8.07293V6.77082C20.8333 6.27836 20.833 5.93508 20.8147 5.66637C20.7967 5.40234 20.763 5.24859 20.7144 5.13121C20.5558 4.74836 20.2516 4.44418 19.8688 4.28559C19.7514 4.23699 19.5977 4.20328 19.3336 4.18527C19.0649 4.16695 18.7216 4.16668 18.2292 4.16668H16.9271C16.4346 4.16668 16.0913 4.16695 15.8226 4.18527ZM16.9086 13.2812H18.2477C18.7173 13.2812 19.0962 13.2812 19.4045 13.3023C19.7216 13.3239 20.002 13.3695 20.2674 13.4795C20.9055 13.7438 21.4125 14.2507 21.6768 14.8888C21.7867 15.1543 21.8323 15.4347 21.854 15.7517C21.875 16.0601 21.875 16.4389 21.875 16.9086V18.2477C21.875 18.7173 21.875 19.0962 21.854 19.4045C21.8323 19.7216 21.7867 20.002 21.6768 20.2674C21.4125 20.9055 20.9055 21.4125 20.2674 21.6768C20.002 21.7867 19.7216 21.8323 19.4045 21.854C19.0962 21.875 18.7173 21.875 18.2477 21.875H16.9086C16.4389 21.875 16.0601 21.875 15.7517 21.854C15.4347 21.8323 15.1543 21.7867 14.8888 21.6768C14.2507 21.4125 13.7438 20.9055 13.4795 20.2674C13.3695 20.002 13.3239 19.7216 13.3023 19.4045C13.2812 19.0962 13.2812 18.7173 13.2812 18.2477V16.9086C13.2812 16.4389 13.2812 16.0601 13.3023 15.7517C13.3239 15.4347 13.3695 15.1543 13.4795 14.8888C13.7438 14.2507 14.2507 13.7438 14.8888 13.4795C15.1543 13.3695 15.4347 13.3239 15.7517 13.3023C16.0601 13.2812 16.4389 13.2812 16.9086 13.2812ZM15.8226 14.3415C15.5586 14.3595 15.4048 14.3932 15.2875 14.4418C14.9046 14.6004 14.6004 14.9046 14.4418 15.2875C14.3932 15.4048 14.3595 15.5586 14.3415 15.8226C14.3232 16.0913 14.3229 16.4346 14.3229 16.9271V18.2292C14.3229 18.7216 14.3232 19.0649 14.3415 19.3336C14.3595 19.5977 14.3932 19.7514 14.4418 19.8688C14.6004 20.2516 14.9046 20.5558 15.2875 20.7144C15.4048 20.763 15.5586 20.7967 15.8226 20.8147C16.0913 20.833 16.4346 20.8333 16.9271 20.8333H18.2292C18.7216 20.8333 19.0649 20.833 19.3336 20.8147C19.5977 20.7967 19.7514 20.763 19.8688 20.7144C20.2516 20.5558 20.5558 20.2516 20.7144 19.8688C20.763 19.7514 20.7967 19.5977 20.8147 19.3336C20.833 19.0649 20.8333 18.7216 20.8333 18.2292V16.9271C20.8333 16.4346 20.833 16.0913 20.8147 15.8226C20.7967 15.5586 20.763 15.4048 20.7144 15.2875C20.5558 14.9046 20.2516 14.6004 19.8688 14.4418C19.7514 14.3932 19.5977 14.3595 19.3336 14.3415C19.0649 14.3232 18.7216 14.3229 18.2292 14.3229H16.9271C16.4346 14.3229 16.0913 14.3232 15.8226 14.3415Z" stroke="black" stroke-width="0.5" mask="url(#path-1-outside-1_333_2511)"/>
</svg>
