<svg width="25" height="25" viewBox="0 0 25 25" fill="none" xmlns="http://www.w3.org/2000/svg">
<path d="M13.6306 11.9004C11.4851 13.3911 10.9627 16.33 12.4653 18.4592C13.9676 20.5881 16.9292 21.1063 19.0748 19.6157C21.2205 18.1249 21.7427 15.186 20.2403 13.0569C18.7378 10.9278 15.7762 10.4097 13.6306 11.9004ZM14.2193 12.7353C15.901 11.5667 18.2221 11.973 19.3995 13.6414C20.5768 15.3097 20.1677 17.6126 18.4861 18.7809C16.8045 19.9492 14.4835 19.543 13.3059 17.8746C12.1288 16.2063 12.5379 13.9038 14.2193 12.7353Z" fill="#00A536" stroke="#00A536" stroke-width="0.05"/>
<path fill-rule="evenodd" clip-rule="evenodd" d="M18.4952 19.635L18.9956 20.3443C19.0713 20.4458 19.184 20.514 19.3097 20.5343C19.4354 20.5546 19.564 20.5254 19.6683 20.4529C19.7726 20.3805 19.8443 20.2705 19.8681 20.1463C19.8918 20.0222 19.8658 19.8938 19.7956 19.7884L19.2952 19.0791C19.2194 18.9776 19.1067 18.9094 18.981 18.8891C18.8554 18.8688 18.7267 18.898 18.6224 18.9705C18.5181 19.0429 18.4464 19.1529 18.4226 19.2771C18.3989 19.4012 18.4249 19.5296 18.4952 19.635Z" fill="#00A536"/>
<path d="M20.0754 23.3627L20.0755 23.3628C20.2811 23.6511 20.5934 23.8469 20.944 23.9074C21.2946 23.9678 21.6551 23.8881 21.9467 23.6855C22.2383 23.483 22.4372 23.174 22.4999 22.8263C22.5626 22.4785 22.4841 22.1203 22.2814 21.8299L22.2813 21.8298L21.2131 20.3162C21.0182 20.04 20.7442 19.8283 20.4266 19.7085C20.109 19.5886 19.7624 19.5662 19.4319 19.6441C19.2465 19.6878 19.0849 19.8 18.9801 19.9579L19.0009 19.9717L18.9801 19.9579C18.7932 20.2396 18.6959 20.5705 18.7007 20.9077C18.7056 21.2449 18.8125 21.5729 19.0074 21.8491L20.0754 23.3627ZM21.3619 22.8558L21.3615 22.856C21.292 22.9042 21.2061 22.9231 21.1227 22.9085C21.0392 22.8939 20.965 22.847 20.9164 22.7783C20.9164 22.7783 20.9164 22.7782 20.9164 22.7782L19.8481 21.2647C19.7809 21.1696 19.7401 21.0586 19.7297 20.943C19.7197 20.8322 19.7379 20.7207 19.7826 20.6189C19.8945 20.612 20.0064 20.6332 20.108 20.6804C20.214 20.7297 20.3051 20.8058 20.3723 20.9009L21.4404 22.4145L21.4404 22.4145C21.4645 22.4485 21.4816 22.487 21.4907 22.5276C21.4998 22.5682 21.5007 22.6102 21.4934 22.6511C21.4862 22.6921 21.4708 22.7313 21.4483 22.7664C21.4257 22.8014 21.3964 22.8318 21.362 22.8557L21.3619 22.8558ZM10.8132 7.56133L10.8132 7.56134C10.6816 7.68589 10.5194 7.76448 10.3422 7.82629C10.2346 7.86379 10.1237 7.89449 10.0111 7.92565C9.93658 7.94629 9.86129 7.96713 9.78575 7.99029C9.73297 8.00647 9.68009 8.02261 9.62718 8.03876C9.13383 8.18934 8.63697 8.341 8.17517 8.54027C7.22171 8.95184 6.4 9.54932 5.81407 10.4868C5.29698 11.3141 4.93584 12.4542 5.02534 14.1332C5.08957 15.3355 6.12493 16.2594 7.33619 16.1959C8.54726 16.1322 9.47875 15.1049 9.41473 13.9028C9.40026 13.632 9.39288 13.4058 9.41171 13.2174C9.43051 13.0292 9.47527 12.8813 9.56316 12.7656C9.62166 12.6888 9.69813 12.6372 9.78422 12.5956C9.84578 12.5659 9.91072 12.542 9.97714 12.5175C10.0045 12.5074 10.0321 12.4973 10.0599 12.4866C10.3136 12.3889 10.5788 12.3095 10.8452 12.2297C10.9244 12.2059 11.0038 12.1822 11.083 12.1579C12.116 11.8412 13.0943 11.4294 13.8454 10.719C15.2138 9.42518 15.784 7.87483 15.7073 6.38664C15.6307 4.89882 14.9077 3.47501 13.6933 2.43339C12.26 1.20386 10.0598 0.482628 7.36271 1.12203C5.32566 1.60466 4.14076 2.51121 3.41585 3.36154C2.10181 4.90305 2.14523 6.46589 2.15071 6.58883C2.17459 7.78712 3.17158 8.74345 4.38035 8.72581C4.94468 8.7177 5.37831 8.5642 5.73112 8.23882C6.08299 7.91431 6.3522 7.4209 6.59264 6.7376C6.6681 6.52313 6.808 6.23783 7.07944 5.97793C7.35071 5.7182 7.75455 5.4827 8.35979 5.36938C9.4149 5.17175 10.2725 5.26435 10.819 5.73316C11.3545 6.19263 11.4191 6.98852 10.8132 7.56133ZM3.17707 6.56207L3.17705 6.56165L3.17647 6.54324L3.17646 6.54304L3.17646 6.54303L3.17646 6.54301L3.17645 6.54288L3.17643 6.54228L3.17636 6.53969L3.17617 6.52914C3.17606 6.51975 3.17604 6.50572 3.17639 6.48734C3.17709 6.45059 3.17928 6.39648 3.18527 6.32751C3.19725 6.18956 3.22442 5.99221 3.28517 5.75538C3.40666 5.28175 3.66245 4.65029 4.1998 4.01994L4.1998 4.01994C4.82063 3.2914 5.84716 2.52881 7.60099 2.11313C9.91182 1.56545 11.7986 2.15475 13.0223 3.20448C14.0166 4.05732 14.6052 5.2221 14.6657 6.43777C14.7261 7.65307 14.2587 8.9211 13.1374 9.98129L13.1546 9.99946C12.515 10.6045 11.6712 10.9374 10.7874 11.2082C10.7118 11.2313 10.636 11.2541 10.5601 11.2769C10.2683 11.3647 9.9763 11.4526 9.69757 11.5599C9.34074 11.6973 8.99953 11.857 8.76398 12.1669L8.74408 12.1518C8.74408 12.1518 8.74408 12.1518 8.74408 12.1518C8.45104 12.537 8.3444 13.1075 8.3896 13.9566C8.4059 14.2643 8.29841 14.5658 8.0907 14.7949C7.88299 15.024 7.59204 15.162 7.2818 15.1784C6.97159 15.1945 6.66764 15.0877 6.43676 14.8816C6.20589 14.6755 6.06697 14.387 6.05047 14.0793C5.97549 12.6704 6.25579 11.7132 6.68635 11.0241C7.15461 10.275 7.81889 9.80533 8.58463 9.47474C9.00249 9.2944 9.45209 9.1577 9.90172 9.02099C9.964 9.00205 10.0263 8.98312 10.0885 8.96406L10.0812 8.94016L10.0885 8.96406C10.1233 8.9534 10.1581 8.94282 10.1929 8.93223C10.6783 8.78458 11.1644 8.63671 11.5214 8.29921C12.6233 7.25713 12.4687 5.80149 11.4902 4.96227C10.7398 4.3187 9.5872 4.10259 8.16934 4.3681C7.2923 4.53235 6.71061 4.88359 6.32058 5.27315C5.93076 5.66248 5.73363 6.08884 5.6236 6.40162C5.47354 6.82786 5.32932 7.15174 5.13735 7.37047C4.94688 7.58749 4.70839 7.70207 4.36519 7.70702C4.05457 7.71138 3.75494 7.59318 3.53217 7.37847C3.3094 7.16375 3.18169 6.87011 3.17707 6.56207ZM5.05148 19.0832V19.4555C5.05148 20.6594 6.03649 21.6365 7.24933 21.6365C8.46218 21.6365 9.44679 20.6594 9.44679 19.4555V19.0582C9.44679 17.8543 8.46198 16.8774 7.24914 16.8774C6.0363 16.8774 5.05128 17.8543 5.05128 19.0582V19.0832H5.05148ZM6.07804 19.0582C6.07819 18.7501 6.2016 18.4547 6.42121 18.2367C6.64082 18.0188 6.93868 17.8963 7.24934 17.8962C7.55995 17.8964 7.85775 18.0189 8.07733 18.2368C8.29689 18.4547 8.42027 18.7501 8.42042 19.0582V19.4555C8.42027 19.7635 8.29689 20.0589 8.07733 20.2768C7.85775 20.4947 7.55995 20.6173 7.24931 20.6175C6.93869 20.6173 6.6409 20.4947 6.42133 20.2768C6.20177 20.0589 6.07839 19.7635 6.07824 19.4555L6.07804 19.0582Z" fill="#00A536" stroke="#00A536" stroke-width="0.05"/>
</svg>
