<?xml version="1.0" encoding="UTF-8"?>
<!-- Generator: https://ezgif.com/png-to-svg -->
<svg version="1.1" xmlns="http://www.w3.org/2000/svg" width="512" height="512">
<path d="M0 0 C2.15 0.02 4.29 0 6.43 -0.02 C42.33 -0.08 72.64 16.96 97.55 41.79 C119.67 65.23 130.6 96.08 130.52 127.95 C130.52 128.7 130.52 129.45 130.52 130.22 C130.49 142.03 129.57 153.05 126.15 164.39 C125.79 165.68 125.44 166.97 125.08 168.26 C115.7 199.57 92.7 225.25 64.37 240.82 C55.21 245.69 46.21 249.77 36.15 252.39 C35.46 252.58 34.77 252.77 34.06 252.97 C1.62 261.82 -33.29 256.86 -62.39 240.46 C-71.43 235.17 -79.27 228.58 -86.85 221.39 C-87.75 220.56 -88.65 219.73 -89.57 218.87 C-106.06 203.07 -116.78 183.3 -122.85 161.39 C-123.19 160.2 -123.54 159.01 -123.89 157.79 C-131.48 125.52 -124.46 89.72 -107.85 61.39 C-102.39 52.67 -95.97 44.82 -88.85 37.39 C-88.17 36.64 -87.49 35.9 -86.78 35.13 C-74.07 21.69 -57.22 11.96 -39.79 6.02 C-38.8 5.68 -38.8 5.68 -37.8 5.33 C-25.4 1.38 -12.95 -0.12 0 0 Z M-48.85 71.39 C-50.27 74.23 -50.17 76.25 -49.85 79.39 C-47.66 82.34 -46.46 83.29 -42.81 83.91 C-41.05 83.92 -41.05 83.92 -39.25 83.93 C-37.96 83.95 -36.66 83.98 -35.33 84 C-33.96 84.01 -32.6 84.01 -31.23 84.02 C-7.39 84.21 -7.39 84.21 0.39 90.6 C3.78 94.05 6 98.1 8.15 102.39 C7.49 102.38 6.84 102.37 6.17 102.36 C-0.63 102.28 -7.43 102.22 -14.22 102.17 C-16.76 102.15 -19.3 102.12 -21.83 102.09 C-25.48 102.04 -29.13 102.02 -32.77 102 C-33.91 101.98 -35.04 101.96 -36.21 101.94 C-42.41 101.91 -42.41 101.91 -48.07 104.2 C-50.15 106.38 -50.15 106.38 -50.42 109.89 C-49.76 113.96 -49.03 114.89 -45.85 117.39 C-43.28 117.97 -43.28 117.97 -40.44 117.85 C-38.82 117.84 -38.82 117.84 -37.17 117.84 C-35.43 117.81 -35.43 117.81 -33.65 117.78 C-31.86 117.77 -31.86 117.77 -30.04 117.76 C-26.23 117.74 -22.42 117.69 -18.6 117.64 C-16.02 117.62 -13.44 117.6 -10.85 117.59 C-4.52 117.54 1.81 117.48 8.15 117.39 C7.53 118.67 6.91 119.94 6.29 121.22 C5.95 121.93 5.6 122.64 5.25 123.37 C2.13 129.08 -3.52 132.89 -9.59 134.99 C-12.9 135.58 -16.19 135.55 -19.54 135.57 C-21.06 135.59 -22.58 135.61 -24.1 135.64 C-26.48 135.67 -28.86 135.7 -31.25 135.72 C-33.55 135.73 -35.86 135.77 -38.17 135.82 C-39.23 135.81 -39.23 135.81 -40.32 135.81 C-43.7 135.89 -45.56 136.17 -48.29 138.22 C-50.08 140.41 -50.08 140.41 -50.6 143.64 C-48.95 151.92 -40.05 156.94 -33.78 161.97 C-30.7 164.52 -27.77 167.17 -24.85 169.89 C-21.15 173.34 -17.37 176.66 -13.42 179.83 C-9.18 183.23 -5.19 186.81 -1.23 190.52 C7.08 199.08 7.08 199.08 17.46 204.08 C20.87 203.21 22.15 202.3 24.15 199.39 C24.78 195.67 24.62 194.06 22.42 190.95 C20.17 188.41 17.88 186.42 15.21 184.33 C10.85 180.84 6.72 177.21 2.65 173.39 C-2.21 168.84 -7.19 164.56 -12.42 160.43 C-14.85 158.39 -14.85 158.39 -17.54 155.64 C-19.56 153.16 -19.56 153.16 -21.85 153.39 C-21.85 152.73 -21.85 152.07 -21.85 151.39 C-20.84 151.44 -20.84 151.44 -19.8 151.5 C-6.75 151.88 3.74 147.6 13.4 138.77 C18.75 133.14 22.38 125.93 24.15 118.39 C24.91 118.38 25.68 118.37 26.47 118.36 C29.94 118.31 33.42 118.23 36.9 118.14 C38.1 118.13 39.31 118.11 40.55 118.1 C41.71 118.07 42.87 118.03 44.07 118 C45.14 117.98 46.2 117.96 47.3 117.94 C50.81 117.26 52.01 116.21 54.15 113.39 C54.9 109.89 54.9 109.89 54.15 106.39 C50.61 102.83 48.15 101.88 43.19 101.78 C41.52 101.73 41.52 101.73 39.82 101.68 C38.67 101.67 37.52 101.66 36.33 101.64 C35.16 101.61 33.99 101.58 32.79 101.55 C29.91 101.48 27.03 101.43 24.15 101.39 C22.97 98.46 21.8 95.53 20.63 92.6 C19.09 89.27 17.21 86.42 15.15 83.39 C16.7 83.42 16.7 83.42 18.29 83.45 C22.16 83.53 26.02 83.57 29.88 83.61 C31.55 83.63 33.22 83.66 34.89 83.69 C37.29 83.74 39.7 83.76 42.1 83.78 C42.84 83.8 43.59 83.82 44.36 83.84 C47.85 83.85 49.78 83.66 52.62 81.55 C54.69 78.62 54.66 76.91 54.15 73.39 C52.79 70.89 52.02 69.67 49.28 68.79 C45.72 68.12 42.13 68.23 38.52 68.23 C37.66 68.23 36.79 68.22 35.89 68.21 C33.02 68.2 30.15 68.19 27.28 68.19 C25.28 68.18 23.28 68.18 21.29 68.17 C17.1 68.16 12.91 68.15 8.72 68.15 C3.36 68.15 -2 68.12 -7.37 68.09 C-11.49 68.07 -15.62 68.07 -19.74 68.07 C-21.72 68.06 -23.7 68.06 -25.67 68.04 C-28.44 68.03 -31.21 68.03 -33.98 68.03 C-35.2 68.02 -35.2 68.02 -36.44 68.01 C-41.3 68.04 -44.64 68.7 -48.85 71.39 Z " fill="#000000" transform="translate(349.8544921875,31.60888671875)"/>
<path d="M0 0 C1.17 -0.01 2.35 -0.03 3.55 -0.04 C5.48 -0.05 5.48 -0.05 7.44 -0.06 C9.41 -0.07 9.41 -0.07 11.43 -0.09 C14.23 -0.1 17.04 -0.11 19.84 -0.12 C23.39 -0.13 26.94 -0.16 30.48 -0.2 C33.24 -0.23 36 -0.24 38.76 -0.24 C40.69 -0.25 42.62 -0.27 44.55 -0.3 C56.47 -0.27 67.71 2.22 78.34 7.74 C78.98 8.07 79.63 8.41 80.29 8.75 C91.54 14.7 102.38 21.56 112.87 28.74 C121.02 33.15 128.79 33.6 137.92 33.56 C140.16 33.55 142.4 33.56 144.63 33.57 C150.99 33.61 157.35 33.62 163.71 33.61 C167.62 33.61 171.52 33.63 175.43 33.66 C177.62 33.67 179.8 33.66 181.99 33.65 C193.54 33.68 204.06 35.79 212.52 44.18 C220.08 53.55 221.51 62.27 220.52 74.18 C218.99 80.79 215.85 86.86 210.52 91.18 C202.27 96.07 195.76 98.32 186.22 98.37 C185.39 98.37 184.55 98.38 183.69 98.39 C181.89 98.41 180.08 98.42 178.27 98.44 C175.41 98.46 172.54 98.49 169.68 98.51 C162.58 98.58 155.47 98.64 148.36 98.7 C142.36 98.75 136.35 98.81 130.34 98.87 C127.52 98.9 124.7 98.92 121.87 98.94 C120.15 98.95 118.42 98.97 116.7 98.99 C115.52 98.99 115.52 98.99 114.31 99 C111.12 99.04 108.57 99.16 105.52 100.18 C103.62 102.75 103.52 104.08 103.71 107.3 C104.27 110.48 104.27 110.48 107.52 112.18 C110.33 112.38 113.04 112.47 115.84 112.47 C116.69 112.47 117.54 112.48 118.42 112.49 C121.23 112.51 124.05 112.51 126.86 112.51 C128.83 112.52 130.79 112.53 132.75 112.53 C136.87 112.55 141 112.55 145.12 112.55 C150.37 112.55 155.63 112.57 160.88 112.61 C164.94 112.63 169 112.64 173.06 112.63 C174.99 112.64 176.93 112.65 178.87 112.66 C195.36 112.78 209.67 110.65 222.27 98.93 C229.11 91.54 232.2 84.02 234.08 74.18 C235.52 71.18 235.52 71.18 238.77 69.74 C244.8 67.67 250.94 65.95 257.07 64.2 C258.37 63.83 259.68 63.45 260.98 63.08 C263.69 62.3 266.4 61.52 269.12 60.74 C272.59 59.75 276.06 58.75 279.53 57.75 C282.86 56.8 286.18 55.84 289.51 54.89 C290.75 54.53 292 54.17 293.28 53.81 C294.44 53.47 295.59 53.14 296.78 52.8 C297.8 52.51 298.81 52.22 299.86 51.92 C310.4 48.97 320.73 48.8 330.52 54.18 C336.9 58.09 341.69 65.7 344.05 72.75 C345.82 81.84 345.74 91.31 340.52 99.18 C333.27 109.57 321.94 114.1 310.71 119.18 C308.21 120.32 305.72 121.47 303.22 122.61 C302.59 122.91 301.95 123.2 301.3 123.5 C294.49 126.64 287.76 129.9 281.02 133.18 C270.37 138.35 259.66 143.39 248.9 148.35 C240.91 152.05 232.96 155.84 225.02 159.68 C214.51 164.77 203.94 169.74 193.33 174.64 C188.37 176.92 183.42 179.21 178.51 181.59 C160.05 190.56 141.89 195.78 121.21 195.61 C120.54 195.61 119.87 195.61 119.17 195.61 C108.19 195.53 97.99 194.6 87.52 191.18 C86.85 190.96 86.18 190.75 85.48 190.53 C69.2 185.24 54.86 176.26 40.24 167.54 C28.91 160.79 17.49 154.2 6.05 147.64 C4.36 146.66 2.67 145.65 1.01 144.61 C-1.43 143.2 -3.85 142.2 -6.48 141.18 C-6.5 122.94 -6.52 104.7 -6.53 86.47 C-6.53 78 -6.54 69.53 -6.55 61.07 C-6.56 53.69 -6.57 46.31 -6.57 38.94 C-6.57 35.03 -6.57 31.12 -6.58 27.21 C-6.59 23.54 -6.59 19.86 -6.59 16.19 C-6.59 14.19 -6.59 12.19 -6.6 10.19 C-6.6 9.01 -6.6 7.83 -6.6 6.61 C-6.6 5.58 -6.6 4.55 -6.6 3.49 C-6.36 -0.92 -3.85 0.04 0 0 Z " fill="#000000" transform="translate(135.47509765625,284.822998046875)"/>
<path d="M0 0 C0.72 -0.01 1.43 -0.01 2.17 -0.02 C4.53 -0.04 6.89 -0.03 9.25 -0.01 C10.9 -0.02 12.54 -0.02 14.19 -0.03 C17.63 -0.03 21.07 -0.02 24.51 -0 C28.93 0.02 33.34 0.01 37.75 -0.02 C41.14 -0.03 44.54 -0.03 47.93 -0.02 C49.56 -0.02 51.18 -0.02 52.81 -0.03 C55.09 -0.04 57.36 -0.02 59.63 0 C60.93 0 62.22 0.01 63.55 0.01 C67.5 0.62 68.43 1.36 70.82 4.52 C71.32 7.75 71.32 7.75 71.33 11.65 C71.34 12.37 71.34 13.09 71.35 13.83 C71.37 16.24 71.36 18.65 71.35 21.06 C71.36 22.79 71.37 24.52 71.38 26.25 C71.4 30.94 71.4 35.64 71.39 40.33 C71.38 44.25 71.39 48.16 71.4 52.08 C71.41 61.32 71.41 70.56 71.39 79.79 C71.38 89.33 71.39 98.87 71.42 108.4 C71.45 116.59 71.46 124.77 71.45 132.95 C71.44 137.84 71.45 142.73 71.47 147.62 C71.49 152.22 71.48 156.82 71.46 161.41 C71.45 163.1 71.45 164.79 71.47 166.48 C71.48 168.78 71.47 171.08 71.44 173.38 C71.44 174.67 71.44 175.96 71.44 177.29 C70.82 180.52 70.82 180.52 68.48 182.93 C65.04 184.98 62.71 185.03 58.72 185.04 C58.02 185.04 57.33 185.05 56.61 185.06 C54.33 185.07 52.04 185.06 49.75 185.05 C48.16 185.05 46.56 185.06 44.97 185.06 C41.63 185.07 38.29 185.06 34.95 185.04 C30.68 185.02 26.4 185.03 22.13 185.05 C18.84 185.07 15.55 185.06 12.25 185.05 C10.68 185.05 9.1 185.05 7.53 185.06 C5.32 185.07 3.12 185.06 0.91 185.04 C-0.34 185.03 -1.59 185.03 -2.88 185.03 C-6.91 184.41 -8.36 183.44 -11.18 180.52 C-11.81 177.29 -11.81 177.29 -11.81 173.38 C-11.82 172.66 -11.83 171.94 -11.83 171.2 C-11.85 168.79 -11.83 166.38 -11.81 163.97 C-11.82 162.24 -11.83 160.51 -11.84 158.79 C-11.85 154.09 -11.84 149.4 -11.82 144.7 C-11.81 139.79 -11.81 134.89 -11.82 129.98 C-11.82 121.73 -11.81 113.49 -11.78 105.24 C-11.75 95.7 -11.75 86.17 -11.77 76.63 C-11.78 67.46 -11.77 58.29 -11.76 49.13 C-11.75 45.22 -11.75 41.32 -11.76 37.41 C-11.77 32.82 -11.75 28.22 -11.73 23.62 C-11.72 21.94 -11.72 20.25 -11.73 18.56 C-11.74 16.26 -11.72 13.96 -11.7 11.65 C-11.7 10.36 -11.69 9.08 -11.69 7.75 C-10.59 0.73 -6.42 0.02 0 0 Z M25.07 46.08 C22.51 48.41 22.51 48.41 22.19 52.02 C22.53 55.6 22.53 55.6 24.94 58.02 C27.74 59.77 27.74 59.77 30.94 59.46 C34.57 58.34 34.57 58.34 36.82 55.52 C37.48 52.06 37.48 52.06 36.82 48.52 C34.69 45.97 34.69 45.97 31.82 44.52 C27.87 44.19 27.87 44.19 25.07 46.08 Z " fill="#000000" transform="translate(43.18359375,263.482421875)"/>
</svg>
