<svg xmlns="http://www.w3.org/2000/svg" width="10.667" height="13.41" viewBox="0 0 10.667 13.41">
  <path id="Path_19417" data-name="Path 19417" d="M13.459,9.87c-.642,1.039-2.693,1.8-5.125,1.8s-4.483-.76-5.126-1.8C3.072,9.649,3,9.767,3,9.875V11.4c0,1.478,2.388,3.01,5.334,3.01s5.334-1.532,5.334-3.009V9.876c0-.109-.073-.227-.209-.006Zm.008-3.9c-.632.918-2.691,1.592-5.133,1.592S3.832,6.89,3.2,5.972c-.13-.189-.2-.086-.2,0v1.8C3,9.109,5.388,10.2,8.334,10.2s5.334-1.088,5.334-2.43V5.97C13.667,5.886,13.6,5.783,13.467,5.972ZM8.334,1C5.388,1,3,1.9,3,3.006v.96C3,5.14,5.388,6.093,8.334,6.093s5.334-.952,5.334-2.127v-.96C13.667,1.9,11.279,1,8.334,1Z" transform="translate(-3 -1)"/>
</svg>
